<?xml version="1.0" encoding="UTF-8"?>
<svg
  xmlns="http://www.w3.org/2000/svg"
  xmlns:xlink="http://www.w3.org/1999/xlink"
  width="24"
  height="24"
  viewBox="0 0 24 24"
  version="1.1"
>
  <g id="surface1">
    <path
      style="
        stroke: none;
        fill-rule: evenodd;
        fill: rgb(64.705882%, 83.921569%, 65.490196%);
        fill-opacity: 1;
      "
      d="M 15.273438 3 L 19.125 6.855469 L 15.960938 6.855469 C 15.582031 6.855469 15.273438 6.546875 15.273438 6.167969 Z M 15.273438 3 "
    />
    <path
      style="
        stroke: none;
        fill-rule: evenodd;
        fill: rgb(78.431373%, 90.196078%, 78.823529%);
        fill-opacity: 1;
      "
      d="M 5.332031 3 L 15.273438 3 L 15.273438 6.148438 C 15.273438 6.539062 15.589844 6.855469 15.980469 6.855469 L 19.125 6.855469 L 19.125 16.40625 C 19.125 16.664062 18.914062 16.875 18.65625 16.875 L 5.332031 16.875 C 5.074219 16.875 4.863281 16.664062 4.863281 16.40625 L 4.863281 3.46875 C 4.863281 3.210938 5.074219 3 5.332031 3 Z M 5.332031 3 "
    />
    <path
      style="
        stroke: none;
        fill-rule: nonzero;
        fill: rgb(26.27451%, 62.745098%, 27.843137%);
        fill-opacity: 1;
      "
      d="M 7.875 8.851562 L 16.5 8.851562 L 16.5 9.601562 L 7.875 9.601562 Z M 7.875 8.851562 "
    />
    <path
      style="
        stroke: none;
        fill-rule: nonzero;
        fill: rgb(26.27451%, 62.745098%, 27.843137%);
        fill-opacity: 1;
      "
      d="M 7.875 11.476562 L 16.5 11.476562 L 16.5 12.226562 L 7.875 12.226562 Z M 7.875 11.476562 "
    />
    <path
      style="
        stroke: none;
        fill-rule: evenodd;
        fill: rgb(26.27451%, 62.745098%, 27.843137%);
        fill-opacity: 1;
      "
      d="M 3.953125 14.277344 L 20.046875 14.277344 C 20.308594 14.277344 20.546875 14.382812 20.71875 14.558594 C 20.894531 14.730469 21 14.972656 21 15.234375 L 21 19.855469 C 21 20.117188 20.894531 20.355469 20.71875 20.53125 C 20.546875 20.703125 20.308594 20.8125 20.046875 20.8125 L 3.953125 20.8125 C 3.691406 20.8125 3.453125 20.703125 3.28125 20.53125 C 3.105469 20.355469 3 20.117188 3 19.855469 L 3 15.234375 C 3 14.972656 3.105469 14.730469 3.28125 14.558594 C 3.453125 14.382812 3.691406 14.277344 3.953125 14.277344 Z M 3.953125 14.277344 "
    />
    <path
      style="
        stroke: none;
        fill-rule: nonzero;
        fill: rgb(100%, 100%, 100%);
        fill-opacity: 1;
      "
      d="M 3.964844 15.445312 L 5.511719 15.445312 C 5.859375 15.445312 6.125 15.472656 6.308594 15.527344 C 6.554688 15.597656 6.765625 15.726562 6.941406 15.914062 C 7.117188 16.097656 7.25 16.324219 7.34375 16.59375 C 7.433594 16.859375 7.480469 17.191406 7.480469 17.585938 C 7.480469 17.929688 7.4375 18.226562 7.351562 18.476562 C 7.246094 18.78125 7.097656 19.027344 6.902344 19.21875 C 6.753906 19.359375 6.558594 19.472656 6.308594 19.550781 C 6.121094 19.613281 5.871094 19.640625 5.558594 19.640625 L 3.964844 19.640625 Z M 4.8125 16.15625 L 4.8125 18.933594 L 5.441406 18.933594 C 5.679688 18.933594 5.851562 18.921875 5.957031 18.894531 C 6.09375 18.859375 6.207031 18.800781 6.296875 18.71875 C 6.386719 18.636719 6.460938 18.503906 6.519531 18.316406 C 6.574219 18.128906 6.605469 17.871094 6.605469 17.546875 C 6.605469 17.222656 6.574219 16.972656 6.519531 16.800781 C 6.460938 16.625 6.382812 16.492188 6.277344 16.394531 C 6.175781 16.296875 6.042969 16.230469 5.886719 16.195312 C 5.765625 16.167969 5.535156 16.15625 5.191406 16.15625 Z M 8.027344 17.570312 C 8.027344 17.140625 8.089844 16.785156 8.21875 16.492188 C 8.3125 16.28125 8.441406 16.089844 8.609375 15.917969 C 8.773438 15.75 8.953125 15.625 9.148438 15.542969 C 9.410156 15.429688 9.710938 15.375 10.054688 15.375 C 10.671875 15.375 11.167969 15.566406 11.539062 15.949219 C 11.910156 16.332031 12.09375 16.867188 12.09375 17.550781 C 12.09375 18.226562 11.910156 18.757812 11.542969 19.140625 C 11.171875 19.519531 10.679688 19.710938 10.066406 19.710938 C 9.441406 19.710938 8.945312 19.523438 8.578125 19.140625 C 8.210938 18.761719 8.027344 18.238281 8.027344 17.570312 Z M 8.898438 17.542969 C 8.898438 18.015625 9.007812 18.375 9.226562 18.621094 C 9.445312 18.867188 9.726562 18.988281 10.0625 18.988281 C 10.398438 18.988281 10.675781 18.867188 10.894531 18.625 C 11.109375 18.378906 11.21875 18.015625 11.21875 17.53125 C 11.21875 17.050781 11.113281 16.691406 10.902344 16.453125 C 10.691406 16.21875 10.410156 16.097656 10.0625 16.097656 C 9.714844 16.097656 9.433594 16.21875 9.21875 16.457031 C 9.003906 16.699219 8.898438 17.058594 8.898438 17.542969 Z M 15.4375 18.097656 L 16.261719 18.359375 C 16.132812 18.816406 15.925781 19.15625 15.632812 19.378906 C 15.339844 19.601562 14.96875 19.710938 14.519531 19.710938 C 13.960938 19.710938 13.503906 19.523438 13.144531 19.140625 C 12.785156 18.761719 12.605469 18.242188 12.605469 17.582031 C 12.605469 16.882812 12.789062 16.339844 13.148438 15.953125 C 13.507812 15.570312 13.980469 15.375 14.570312 15.375 C 15.082031 15.375 15.5 15.527344 15.820312 15.832031 C 16.011719 16.007812 16.152344 16.265625 16.25 16.601562 L 15.410156 16.804688 C 15.363281 16.585938 15.257812 16.414062 15.101562 16.289062 C 14.941406 16.160156 14.75 16.097656 14.527344 16.097656 C 14.214844 16.097656 13.960938 16.210938 13.769531 16.433594 C 13.574219 16.65625 13.480469 17.019531 13.480469 17.519531 C 13.480469 18.046875 13.574219 18.425781 13.765625 18.652344 C 13.957031 18.875 14.203125 18.988281 14.507812 18.988281 C 14.734375 18.988281 14.925781 18.917969 15.089844 18.773438 C 15.253906 18.632812 15.367188 18.40625 15.4375 18.097656 Z M 16.5625 19.640625 L 17.992188 17.453125 L 16.695312 15.445312 L 17.683594 15.445312 L 18.527344 16.792969 L 19.351562 15.445312 L 20.332031 15.445312 L 19.027344 17.484375 L 20.460938 19.640625 L 19.4375 19.640625 L 18.507812 18.191406 L 17.578125 19.640625 Z M 16.5625 19.640625 "
    />
  </g>
</svg>
