<?xml version="1.0" encoding="UTF-8"?>
<svg
  xmlns="http://www.w3.org/2000/svg"
  xmlns:xlink="http://www.w3.org/1999/xlink"
  width="24"
  height="24"
  viewBox="0 0 24 24"
  version="1.1"
>
  <g id="surface1">
    <path
      style="
        stroke: none;
        fill-rule: evenodd;
        fill: rgb(93.72549%, 60.392157%, 60.392157%);
        fill-opacity: 1;
      "
      d="M 15.273438 3 L 19.125 6.855469 L 15.960938 6.855469 C 15.582031 6.855469 15.273438 6.546875 15.273438 6.167969 Z M 15.273438 3 "
    />
    <path
      style="
        stroke: none;
        fill-rule: evenodd;
        fill: rgb(100%, 80.392157%, 82.352941%);
        fill-opacity: 1;
      "
      d="M 5.332031 3 L 15.273438 3 L 15.273438 6.148438 C 15.273438 6.539062 15.589844 6.855469 15.980469 6.855469 L 19.125 6.855469 L 19.125 16.40625 C 19.125 16.664062 18.914062 16.875 18.65625 16.875 L 5.332031 16.875 C 5.074219 16.875 4.863281 16.664062 4.863281 16.40625 L 4.863281 3.46875 C 4.863281 3.210938 5.074219 3 5.332031 3 Z M 5.332031 3 "
    />
    <path
      style="
        stroke: none;
        fill-rule: nonzero;
        fill: rgb(82.745098%, 18.431373%, 18.431373%);
        fill-opacity: 1;
      "
      d="M 7.875 8.851562 L 16.5 8.851562 L 16.5 9.601562 L 7.875 9.601562 Z M 7.875 8.851562 "
    />
    <path
      style="
        stroke: none;
        fill-rule: nonzero;
        fill: rgb(82.745098%, 18.431373%, 18.431373%);
        fill-opacity: 1;
      "
      d="M 7.875 11.476562 L 16.5 11.476562 L 16.5 12.226562 L 7.875 12.226562 Z M 7.875 11.476562 "
    />
    <path
      style="
        stroke: none;
        fill-rule: evenodd;
        fill: rgb(82.745098%, 18.431373%, 18.431373%);
        fill-opacity: 1;
      "
      d="M 3.953125 14.277344 L 20.046875 14.277344 C 20.308594 14.277344 20.546875 14.382812 20.71875 14.558594 C 20.894531 14.730469 21 14.972656 21 15.234375 L 21 19.855469 C 21 20.117188 20.894531 20.355469 20.71875 20.53125 C 20.546875 20.703125 20.308594 20.8125 20.046875 20.8125 L 3.953125 20.8125 C 3.691406 20.8125 3.453125 20.703125 3.28125 20.53125 C 3.105469 20.355469 3 20.117188 3 19.855469 L 3 15.234375 C 3 14.972656 3.105469 14.730469 3.28125 14.558594 C 3.453125 14.382812 3.691406 14.277344 3.953125 14.277344 Z M 3.953125 14.277344 "
    />
    <path
      style="
        stroke: none;
        fill-rule: nonzero;
        fill: rgb(100%, 100%, 100%);
        fill-opacity: 1;
      "
      d="M 9.632812 18.097656 L 9.632812 17.390625 L 11.457031 17.390625 L 11.457031 19.0625 C 11.277344 19.234375 11.023438 19.386719 10.683594 19.515625 C 10.347656 19.648438 10.007812 19.710938 9.664062 19.710938 C 9.222656 19.710938 8.839844 19.621094 8.515625 19.4375 C 8.1875 19.253906 7.945312 18.988281 7.78125 18.648438 C 7.617188 18.304688 7.535156 17.933594 7.535156 17.53125 C 7.535156 17.09375 7.625 16.703125 7.808594 16.363281 C 7.992188 16.027344 8.257812 15.765625 8.613281 15.585938 C 8.882812 15.445312 9.214844 15.375 9.617188 15.375 C 10.136719 15.375 10.542969 15.484375 10.835938 15.703125 C 11.128906 15.921875 11.316406 16.222656 11.402344 16.609375 L 10.5625 16.765625 C 10.5 16.558594 10.390625 16.398438 10.226562 16.277344 C 10.0625 16.160156 9.859375 16.097656 9.617188 16.097656 C 9.246094 16.097656 8.953125 16.214844 8.734375 16.449219 C 8.515625 16.6875 8.40625 17.035156 8.40625 17.496094 C 8.40625 17.992188 8.515625 18.367188 8.738281 18.617188 C 8.960938 18.863281 9.25 18.988281 9.609375 18.988281 C 9.785156 18.988281 9.964844 18.953125 10.140625 18.882812 C 10.320312 18.816406 10.472656 18.730469 10.601562 18.632812 L 10.601562 18.097656 Z M 12.210938 19.640625 L 12.210938 15.445312 L 13.058594 15.445312 L 13.058594 19.640625 Z M 13.871094 19.640625 L 13.871094 15.445312 L 16.746094 15.445312 L 16.746094 16.15625 L 14.71875 16.15625 L 14.71875 17.148438 L 16.46875 17.148438 L 16.46875 17.859375 L 14.71875 17.859375 L 14.71875 19.640625 Z M 13.871094 19.640625 "
    />
  </g>
</svg>
