<?xml version="1.0" encoding="UTF-8"?>
<svg
  xmlns="http://www.w3.org/2000/svg"
  xmlns:xlink="http://www.w3.org/1999/xlink"
  width="24"
  height="24"
  viewBox="0 0 24 24"
  version="1.1"
>
  <g id="surface1">
    <path
      style="
        stroke: none;
        fill-rule: evenodd;
        fill: rgb(32.941176%, 43.137255%, 47.843137%);
        fill-opacity: 1;
      "
      d="M 15.273438 3.09375 L 19.125 6.949219 L 15.960938 6.949219 C 15.582031 6.949219 15.273438 6.640625 15.273438 6.261719 Z M 15.273438 3.09375 "
    />
    <path
      style="
        stroke: none;
        fill-rule: evenodd;
        fill: rgb(81.176471%, 84.705882%, 86.27451%);
        fill-opacity: 1;
      "
      d="M 5.332031 3.09375 L 15.273438 3.09375 L 15.273438 6.242188 C 15.273438 6.632812 15.589844 6.949219 15.980469 6.949219 L 19.125 6.949219 L 19.125 16.5 C 19.125 16.757812 18.914062 16.96875 18.65625 16.96875 L 5.332031 16.96875 C 5.074219 16.96875 4.863281 16.757812 4.863281 16.5 L 4.863281 3.5625 C 4.863281 3.304688 5.074219 3.09375 5.332031 3.09375 Z M 5.332031 3.09375 "
    />
    <path
      style="
        stroke: none;
        fill-rule: nonzero;
        fill: rgb(32.941176%, 43.137255%, 47.843137%);
        fill-opacity: 1;
      "
      d="M 7.875 8.945312 L 16.5 8.945312 L 16.5 9.695312 L 7.875 9.695312 Z M 7.875 8.945312 "
    />
    <path
      style="
        stroke: none;
        fill-rule: nonzero;
        fill: rgb(32.941176%, 43.137255%, 47.843137%);
        fill-opacity: 1;
      "
      d="M 7.875 11.570312 L 16.5 11.570312 L 16.5 12.320312 L 7.875 12.320312 Z M 7.875 11.570312 "
    />
    <path
      style="
        stroke: none;
        fill-rule: evenodd;
        fill: rgb(32.941176%, 43.137255%, 47.843137%);
        fill-opacity: 1;
      "
      d="M 3.953125 14.371094 L 20.046875 14.371094 C 20.308594 14.371094 20.546875 14.476562 20.71875 14.652344 C 20.894531 14.824219 21 15.066406 21 15.328125 L 21 19.949219 C 21 20.210938 20.894531 20.449219 20.71875 20.625 C 20.546875 20.796875 20.308594 20.90625 20.046875 20.90625 L 3.953125 20.90625 C 3.691406 20.90625 3.453125 20.796875 3.28125 20.625 C 3.105469 20.449219 3 20.210938 3 19.949219 L 3 15.328125 C 3 15.066406 3.105469 14.824219 3.28125 14.652344 C 3.453125 14.476562 3.691406 14.371094 3.953125 14.371094 Z M 3.953125 14.371094 "
    />
    <path
      style="
        stroke: none;
        fill-rule: nonzero;
        fill: rgb(100%, 100%, 100%);
        fill-opacity: 1;
      "
      d="M 7.46875 19.734375 L 7.46875 15.539062 L 8.316406 15.539062 L 8.316406 19.734375 Z M 8.910156 18.371094 L 9.734375 18.289062 C 9.78125 18.566406 9.882812 18.769531 10.035156 18.898438 C 10.1875 19.027344 10.390625 19.09375 10.648438 19.09375 C 10.921875 19.09375 11.128906 19.035156 11.265625 18.917969 C 11.402344 18.804688 11.472656 18.667969 11.472656 18.515625 C 11.472656 18.414062 11.445312 18.332031 11.386719 18.261719 C 11.328125 18.191406 11.226562 18.132812 11.082031 18.082031 C 10.980469 18.046875 10.753906 17.984375 10.402344 17.898438 C 9.949219 17.785156 9.632812 17.644531 9.449219 17.480469 C 9.191406 17.25 9.0625 16.96875 9.0625 16.636719 C 9.0625 16.425781 9.121094 16.226562 9.242188 16.039062 C 9.363281 15.851562 9.539062 15.710938 9.765625 15.613281 C 9.996094 15.515625 10.269531 15.46875 10.589844 15.46875 C 11.117188 15.46875 11.515625 15.582031 11.78125 15.8125 C 12.046875 16.046875 12.1875 16.351562 12.199219 16.738281 L 11.351562 16.777344 C 11.316406 16.558594 11.238281 16.40625 11.121094 16.3125 C 11 16.214844 10.820312 16.167969 10.585938 16.167969 C 10.339844 16.167969 10.144531 16.21875 10.003906 16.320312 C 9.914062 16.386719 9.871094 16.472656 9.871094 16.582031 C 9.871094 16.679688 9.914062 16.765625 9.996094 16.835938 C 10.101562 16.925781 10.363281 17.019531 10.777344 17.117188 C 11.1875 17.214844 11.492188 17.3125 11.6875 17.417969 C 11.886719 17.523438 12.039062 17.664062 12.152344 17.84375 C 12.265625 18.023438 12.320312 18.246094 12.320312 18.511719 C 12.320312 18.753906 12.253906 18.976562 12.121094 19.1875 C 11.984375 19.398438 11.796875 19.554688 11.554688 19.65625 C 11.308594 19.757812 11.003906 19.808594 10.640625 19.808594 C 10.109375 19.808594 9.703125 19.6875 9.417969 19.441406 C 9.132812 19.195312 8.964844 18.839844 8.910156 18.371094 Z M 12.859375 17.664062 C 12.859375 17.234375 12.925781 16.875 13.054688 16.585938 C 13.148438 16.375 13.277344 16.179688 13.441406 16.011719 C 13.609375 15.84375 13.789062 15.714844 13.984375 15.632812 C 14.246094 15.523438 14.546875 15.46875 14.890625 15.46875 C 15.507812 15.46875 16 15.660156 16.375 16.042969 C 16.746094 16.425781 16.929688 16.960938 16.929688 17.640625 C 16.929688 18.320312 16.746094 18.847656 16.378906 19.230469 C 16.007812 19.613281 15.515625 19.804688 14.902344 19.804688 C 14.277344 19.804688 13.78125 19.613281 13.414062 19.234375 C 13.046875 18.855469 12.863281 18.328125 12.863281 17.664062 Z M 13.734375 17.632812 C 13.734375 18.109375 13.84375 18.46875 14.0625 18.714844 C 14.28125 18.960938 14.5625 19.082031 14.898438 19.082031 C 15.234375 19.082031 15.511719 18.960938 15.730469 18.714844 C 15.945312 18.472656 16.054688 18.109375 16.054688 17.621094 C 16.054688 17.140625 15.949219 16.785156 15.738281 16.546875 C 15.527344 16.308594 15.246094 16.191406 14.898438 16.191406 C 14.550781 16.191406 14.269531 16.3125 14.054688 16.550781 C 13.839844 16.789062 13.734375 17.152344 13.734375 17.632812 Z M 13.734375 17.632812 "
    />
  </g>
</svg>
