<?xml version="1.0" encoding="UTF-8"?>
<svg
  xmlns="http://www.w3.org/2000/svg"
  xmlns:xlink="http://www.w3.org/1999/xlink"
  width="24"
  height="24"
  viewBox="0 0 24 24"
  version="1.1"
>
  <g id="surface1">
    <path
      style="
        stroke: none;
        fill-rule: evenodd;
        fill: rgb(64.705882%, 83.921569%, 65.490196%);
        fill-opacity: 1;
      "
      d="M 15.273438 3.09375 L 19.125 6.949219 L 15.960938 6.949219 C 15.582031 6.949219 15.273438 6.640625 15.273438 6.261719 Z M 15.273438 3.09375 "
    />
    <path
      style="
        stroke: none;
        fill-rule: evenodd;
        fill: rgb(78.431373%, 90.196078%, 78.823529%);
        fill-opacity: 1;
      "
      d="M 5.332031 3.09375 L 15.273438 3.09375 L 15.273438 6.242188 C 15.273438 6.632812 15.589844 6.949219 15.980469 6.949219 L 19.125 6.949219 L 19.125 16.5 C 19.125 16.757812 18.914062 16.96875 18.65625 16.96875 L 5.332031 16.96875 C 5.074219 16.96875 4.863281 16.757812 4.863281 16.5 L 4.863281 3.5625 C 4.863281 3.304688 5.074219 3.09375 5.332031 3.09375 Z M 5.332031 3.09375 "
    />
    <path
      style="
        stroke: none;
        fill-rule: nonzero;
        fill: rgb(26.27451%, 62.745098%, 27.843137%);
        fill-opacity: 1;
      "
      d="M 7.875 8.945312 L 16.5 8.945312 L 16.5 9.695312 L 7.875 9.695312 Z M 7.875 8.945312 "
    />
    <path
      style="
        stroke: none;
        fill-rule: nonzero;
        fill: rgb(26.27451%, 62.745098%, 27.843137%);
        fill-opacity: 1;
      "
      d="M 7.875 11.570312 L 16.5 11.570312 L 16.5 12.320312 L 7.875 12.320312 Z M 7.875 11.570312 "
    />
    <path
      style="
        stroke: none;
        fill-rule: evenodd;
        fill: rgb(26.27451%, 62.745098%, 27.843137%);
        fill-opacity: 1;
      "
      d="M 3.953125 14.371094 L 20.046875 14.371094 C 20.308594 14.371094 20.546875 14.476562 20.71875 14.652344 C 20.894531 14.824219 21 15.066406 21 15.328125 L 21 19.949219 C 21 20.210938 20.894531 20.449219 20.71875 20.625 C 20.546875 20.796875 20.308594 20.90625 20.046875 20.90625 L 3.953125 20.90625 C 3.691406 20.90625 3.453125 20.796875 3.28125 20.625 C 3.105469 20.449219 3 20.210938 3 19.949219 L 3 15.328125 C 3 15.066406 3.105469 14.824219 3.28125 14.652344 C 3.453125 14.476562 3.691406 14.371094 3.953125 14.371094 Z M 3.953125 14.371094 "
    />
    <path
      style="
        stroke: none;
        fill-rule: nonzero;
        fill: rgb(100%, 100%, 100%);
        fill-opacity: 1;
      "
      d="M 8.253906 15.539062 L 9.097656 15.539062 L 9.097656 18.195312 C 9.097656 18.542969 9.066406 18.808594 9.007812 18.996094 C 8.925781 19.242188 8.777344 19.4375 8.5625 19.585938 C 8.34375 19.734375 8.0625 19.804688 7.707031 19.804688 C 7.292969 19.804688 6.976562 19.691406 6.753906 19.457031 C 6.53125 19.226562 6.417969 18.886719 6.414062 18.4375 L 7.214844 18.347656 C 7.222656 18.585938 7.257812 18.757812 7.320312 18.855469 C 7.410156 19.007812 7.550781 19.082031 7.738281 19.082031 C 7.925781 19.082031 8.058594 19.027344 8.136719 18.921875 C 8.214844 18.8125 8.253906 18.589844 8.253906 18.25 Z M 10 19.734375 L 10 15.539062 L 11.359375 15.539062 C 11.875 15.539062 12.210938 15.5625 12.367188 15.605469 C 12.605469 15.667969 12.808594 15.804688 12.96875 16.015625 C 13.132812 16.226562 13.214844 16.496094 13.214844 16.832031 C 13.214844 17.089844 13.167969 17.304688 13.074219 17.480469 C 12.980469 17.65625 12.859375 17.792969 12.714844 17.894531 C 12.574219 17.992188 12.425781 18.058594 12.277344 18.09375 C 12.074219 18.132812 11.78125 18.152344 11.398438 18.152344 L 10.847656 18.152344 L 10.847656 19.734375 Z M 10.847656 16.25 L 10.847656 17.441406 L 11.308594 17.441406 C 11.644531 17.441406 11.867188 17.417969 11.980469 17.375 C 12.09375 17.332031 12.179688 17.261719 12.246094 17.167969 C 12.308594 17.074219 12.339844 16.964844 12.339844 16.84375 C 12.339844 16.691406 12.296875 16.5625 12.207031 16.464844 C 12.117188 16.367188 12.003906 16.304688 11.867188 16.277344 C 11.765625 16.257812 11.5625 16.25 11.257812 16.25 Z M 15.859375 18.191406 L 15.859375 17.484375 L 17.683594 17.484375 L 17.683594 19.15625 C 17.507812 19.328125 17.25 19.480469 16.914062 19.609375 C 16.578125 19.742188 16.234375 19.804688 15.890625 19.804688 C 15.453125 19.804688 15.070312 19.714844 14.742188 19.53125 C 14.417969 19.347656 14.171875 19.082031 14.007812 18.742188 C 13.84375 18.398438 13.761719 18.027344 13.761719 17.625 C 13.761719 17.1875 13.855469 16.796875 14.035156 16.457031 C 14.21875 16.121094 14.488281 15.859375 14.839844 15.679688 C 15.109375 15.539062 15.445312 15.46875 15.84375 15.46875 C 16.367188 15.46875 16.773438 15.578125 17.066406 15.796875 C 17.359375 16.015625 17.546875 16.316406 17.628906 16.703125 L 16.789062 16.859375 C 16.730469 16.652344 16.617188 16.492188 16.457031 16.371094 C 16.292969 16.253906 16.089844 16.191406 15.84375 16.191406 C 15.476562 16.191406 15.179688 16.308594 14.960938 16.542969 C 14.742188 16.78125 14.636719 17.128906 14.636719 17.589844 C 14.636719 18.085938 14.746094 18.460938 14.96875 18.710938 C 15.1875 18.957031 15.476562 19.082031 15.835938 19.082031 C 16.015625 19.082031 16.191406 19.046875 16.371094 18.976562 C 16.546875 18.910156 16.703125 18.824219 16.828125 18.726562 L 16.828125 18.191406 Z M 15.859375 18.191406 "
    />
  </g>
</svg>
