<?xml version="1.0" encoding="UTF-8"?>
<svg
  xmlns="http://www.w3.org/2000/svg"
  xmlns:xlink="http://www.w3.org/1999/xlink"
  width="24"
  height="24"
  viewBox="0 0 24 24"
  version="1.1"
>
  <g id="surface1">
    <path
      style="
        stroke: none;
        fill-rule: evenodd;
        fill: rgb(63.137255%, 53.333333%, 49.803922%);
        fill-opacity: 1;
      "
      d="M 15.273438 3.09375 L 19.125 6.949219 L 15.960938 6.949219 C 15.582031 6.949219 15.273438 6.640625 15.273438 6.261719 Z M 15.273438 3.09375 "
    />
    <path
      style="
        stroke: none;
        fill-rule: evenodd;
        fill: rgb(84.313725%, 80%, 78.431373%);
        fill-opacity: 1;
      "
      d="M 5.332031 3.09375 L 15.273438 3.09375 L 15.273438 6.242188 C 15.273438 6.632812 15.589844 6.949219 15.980469 6.949219 L 19.125 6.949219 L 19.125 16.5 C 19.125 16.757812 18.914062 16.96875 18.65625 16.96875 L 5.332031 16.96875 C 5.074219 16.96875 4.863281 16.757812 4.863281 16.5 L 4.863281 3.5625 C 4.863281 3.304688 5.074219 3.09375 5.332031 3.09375 Z M 5.332031 3.09375 "
    />
    <path
      style="
        stroke: none;
        fill-rule: nonzero;
        fill: rgb(55.294118%, 43.137255%, 38.823529%);
        fill-opacity: 1;
      "
      d="M 10.015625 11.988281 L 10.015625 7.421875 C 11.332031 8.179688 12.652344 8.941406 13.972656 9.703125 Z M 10.015625 11.988281 "
    />
    <path
      style="
        stroke: none;
        fill-rule: evenodd;
        fill: rgb(55.294118%, 43.137255%, 38.823529%);
        fill-opacity: 1;
      "
      d="M 3.953125 14.371094 L 20.046875 14.371094 C 20.308594 14.371094 20.546875 14.476562 20.71875 14.652344 C 20.894531 14.824219 21 15.066406 21 15.328125 L 21 19.949219 C 21 20.210938 20.894531 20.449219 20.71875 20.625 C 20.546875 20.796875 20.308594 20.90625 20.046875 20.90625 L 3.953125 20.90625 C 3.691406 20.90625 3.453125 20.796875 3.28125 20.625 C 3.105469 20.449219 3 20.210938 3 19.949219 L 3 15.328125 C 3 15.066406 3.105469 14.824219 3.28125 14.652344 C 3.453125 14.476562 3.691406 14.371094 3.953125 14.371094 Z M 3.953125 14.371094 "
    />
    <path
      style="
        stroke: none;
        fill-rule: nonzero;
        fill: rgb(100%, 100%, 100%);
        fill-opacity: 1;
      "
      d="M 5.90625 19.734375 L 5.90625 15.539062 L 7.175781 15.539062 L 7.9375 18.402344 L 8.6875 15.539062 L 9.957031 15.539062 L 9.957031 19.734375 L 9.171875 19.734375 L 9.171875 16.433594 L 8.339844 19.734375 L 7.523438 19.734375 L 6.695312 16.433594 L 6.695312 19.734375 Z M 10.8125 19.734375 L 10.8125 15.539062 L 11.65625 15.539062 L 11.65625 17.402344 L 13.367188 15.539062 L 14.507812 15.539062 L 12.929688 17.175781 L 14.59375 19.734375 L 13.496094 19.734375 L 12.34375 17.765625 L 11.65625 18.46875 L 11.65625 19.734375 Z M 16.101562 19.734375 L 14.601562 15.539062 L 15.519531 15.539062 L 16.582031 18.644531 L 17.609375 15.539062 L 18.507812 15.539062 L 17.003906 19.734375 Z M 16.101562 19.734375 "
    />
  </g>
</svg>
