<?xml version="1.0" encoding="UTF-8"?>
<svg
  xmlns="http://www.w3.org/2000/svg"
  xmlns:xlink="http://www.w3.org/1999/xlink"
  width="24"
  height="24"
  viewBox="0 0 24 24"
  version="1.1"
>
  <g id="surface1">
    <path
      style="
        stroke: none;
        fill-rule: evenodd;
        fill: rgb(50.196078%, 79.607843%, 76.862745%);
        fill-opacity: 1;
      "
      d="M 15.273438 3.09375 L 19.125 6.949219 L 15.960938 6.949219 C 15.582031 6.949219 15.273438 6.640625 15.273438 6.261719 Z M 15.273438 3.09375 "
    />
    <path
      style="
        stroke: none;
        fill-rule: evenodd;
        fill: rgb(69.803922%, 87.45098%, 85.882353%);
        fill-opacity: 1;
      "
      d="M 5.332031 3.09375 L 15.273438 3.09375 L 15.273438 6.242188 C 15.273438 6.632812 15.589844 6.949219 15.980469 6.949219 L 19.125 6.949219 L 19.125 16.5 C 19.125 16.757812 18.914062 16.96875 18.65625 16.96875 L 5.332031 16.96875 C 5.074219 16.96875 4.863281 16.757812 4.863281 16.5 L 4.863281 3.5625 C 4.863281 3.304688 5.074219 3.09375 5.332031 3.09375 Z M 5.332031 3.09375 "
    />
    <path
      style="
        stroke: none;
        fill-rule: nonzero;
        fill: rgb(0%, 53.72549%, 48.235294%);
        fill-opacity: 1;
      "
      d="M 10.015625 11.988281 L 10.015625 7.421875 C 11.335938 8.179688 12.652344 8.941406 13.972656 9.703125 Z M 10.015625 11.988281 "
    />
    <path
      style="
        stroke: none;
        fill-rule: evenodd;
        fill: rgb(0%, 53.72549%, 48.235294%);
        fill-opacity: 1;
      "
      d="M 3.953125 14.371094 L 20.046875 14.371094 C 20.308594 14.371094 20.546875 14.476562 20.71875 14.652344 C 20.894531 14.824219 21 15.066406 21 15.328125 L 21 19.949219 C 21 20.210938 20.894531 20.449219 20.71875 20.625 C 20.546875 20.796875 20.308594 20.90625 20.046875 20.90625 L 3.953125 20.90625 C 3.691406 20.90625 3.453125 20.796875 3.28125 20.625 C 3.105469 20.449219 3 20.210938 3 19.949219 L 3 15.328125 C 3 15.066406 3.105469 14.824219 3.28125 14.652344 C 3.453125 14.476562 3.691406 14.371094 3.953125 14.371094 Z M 3.953125 14.371094 "
    />
    <path
      style="
        stroke: none;
        fill-rule: nonzero;
        fill: rgb(100%, 100%, 100%);
        fill-opacity: 1;
      "
      d="M 5.746094 19.734375 L 5.746094 15.539062 L 7.011719 15.539062 L 7.773438 18.402344 L 8.523438 15.539062 L 9.796875 15.539062 L 9.796875 19.734375 L 9.007812 19.734375 L 9.007812 16.433594 L 8.175781 19.734375 L 7.359375 19.734375 L 6.53125 16.433594 L 6.53125 19.734375 Z M 10.464844 17.664062 C 10.464844 17.234375 10.527344 16.878906 10.65625 16.585938 C 10.753906 16.375 10.882812 16.183594 11.046875 16.011719 C 11.210938 15.84375 11.394531 15.71875 11.589844 15.636719 C 11.851562 15.523438 12.152344 15.46875 12.492188 15.46875 C 13.113281 15.46875 13.605469 15.660156 13.976562 16.042969 C 14.347656 16.425781 14.535156 16.960938 14.535156 17.644531 C 14.535156 18.320312 14.347656 18.851562 13.980469 19.234375 C 13.613281 19.613281 13.121094 19.804688 12.503906 19.804688 C 11.882812 19.804688 11.386719 19.617188 11.015625 19.234375 C 10.648438 18.855469 10.464844 18.332031 10.464844 17.664062 Z M 11.335938 17.636719 C 11.335938 18.109375 11.449219 18.46875 11.667969 18.714844 C 11.886719 18.960938 12.164062 19.082031 12.503906 19.082031 C 12.839844 19.082031 13.117188 18.960938 13.332031 18.71875 C 13.550781 18.472656 13.65625 18.109375 13.65625 17.625 C 13.65625 17.144531 13.550781 16.785156 13.34375 16.546875 C 13.132812 16.3125 12.851562 16.191406 12.503906 16.191406 C 12.152344 16.191406 11.871094 16.3125 11.65625 16.550781 C 11.445312 16.792969 11.335938 17.152344 11.335938 17.636719 Z M 16.265625 19.734375 L 14.765625 15.539062 L 15.683594 15.539062 L 16.746094 18.644531 L 17.773438 15.539062 L 18.671875 15.539062 L 17.167969 19.734375 Z M 16.265625 19.734375 "
    />
  </g>
</svg>
