<?xml version="1.0" encoding="UTF-8"?>
<svg
  xmlns="http://www.w3.org/2000/svg"
  xmlns:xlink="http://www.w3.org/1999/xlink"
  width="24"
  height="24"
  viewBox="0 0 24 24"
  version="1.1"
>
  <g id="surface1">
    <path
      style="
        stroke: none;
        fill-rule: evenodd;
        fill: rgb(93.72549%, 60.392157%, 60.392157%);
        fill-opacity: 1;
      "
      d="M 15.273438 3.09375 L 19.125 6.949219 L 15.960938 6.949219 C 15.582031 6.949219 15.273438 6.640625 15.273438 6.261719 Z M 15.273438 3.09375 "
    />
    <path
      style="
        stroke: none;
        fill-rule: evenodd;
        fill: rgb(100%, 80.392157%, 82.352941%);
        fill-opacity: 1;
      "
      d="M 5.332031 3.09375 L 15.273438 3.09375 L 15.273438 6.242188 C 15.273438 6.632812 15.589844 6.949219 15.980469 6.949219 L 19.125 6.949219 L 19.125 16.5 C 19.125 16.757812 18.914062 16.96875 18.65625 16.96875 L 5.332031 16.96875 C 5.074219 16.96875 4.863281 16.757812 4.863281 16.5 L 4.863281 3.5625 C 4.863281 3.304688 5.074219 3.09375 5.332031 3.09375 Z M 5.332031 3.09375 "
    />
    <path
      style="
        stroke: none;
        fill-rule: nonzero;
        fill: rgb(82.745098%, 18.431373%, 18.431373%);
        fill-opacity: 1;
      "
      d="M 10.015625 11.988281 L 10.015625 7.421875 C 11.335938 8.179688 12.652344 8.941406 13.972656 9.703125 Z M 10.015625 11.988281 "
    />
    <path
      style="
        stroke: none;
        fill-rule: evenodd;
        fill: rgb(82.745098%, 18.431373%, 18.431373%);
        fill-opacity: 1;
      "
      d="M 3.953125 14.371094 L 20.046875 14.371094 C 20.308594 14.371094 20.546875 14.476562 20.71875 14.652344 C 20.894531 14.824219 21 15.066406 21 15.328125 L 21 19.949219 C 21 20.210938 20.894531 20.449219 20.71875 20.625 C 20.546875 20.796875 20.308594 20.90625 20.046875 20.90625 L 3.953125 20.90625 C 3.691406 20.90625 3.453125 20.796875 3.28125 20.625 C 3.105469 20.449219 3 20.210938 3 19.949219 L 3 15.328125 C 3 15.066406 3.105469 14.824219 3.28125 14.652344 C 3.453125 14.476562 3.691406 14.371094 3.953125 14.371094 Z M 3.953125 14.371094 "
    />
    <path
      style="
        stroke: none;
        fill-rule: nonzero;
        fill: rgb(100%, 100%, 100%);
        fill-opacity: 1;
      "
      d="M 6.515625 19.707031 L 6.515625 15.515625 L 7.785156 15.515625 L 8.546875 18.375 L 9.296875 15.515625 L 10.566406 15.515625 L 10.566406 19.707031 L 9.78125 19.707031 L 9.78125 16.40625 L 8.949219 19.707031 L 8.132812 19.707031 L 7.304688 16.40625 L 7.304688 19.707031 Z M 11.410156 19.707031 L 11.410156 15.515625 L 12.769531 15.515625 C 13.28125 15.515625 13.617188 15.535156 13.773438 15.578125 C 14.015625 15.640625 14.21875 15.777344 14.378906 15.988281 C 14.542969 16.199219 14.621094 16.472656 14.621094 16.804688 C 14.621094 17.0625 14.574219 17.277344 14.480469 17.453125 C 14.386719 17.628906 14.269531 17.765625 14.125 17.867188 C 13.980469 17.96875 13.835938 18.035156 13.6875 18.066406 C 13.484375 18.105469 13.191406 18.125 12.808594 18.125 L 12.257812 18.125 L 12.257812 19.707031 Z M 12.257812 16.222656 L 12.257812 17.414062 L 12.71875 17.414062 C 13.054688 17.414062 13.277344 17.390625 13.390625 17.347656 C 13.5 17.304688 13.589844 17.234375 13.652344 17.140625 C 13.71875 17.046875 13.75 16.941406 13.75 16.816406 C 13.75 16.664062 13.703125 16.539062 13.613281 16.4375 C 13.527344 16.339844 13.410156 16.277344 13.273438 16.253906 C 13.171875 16.234375 12.96875 16.222656 12.664062 16.222656 Z M 15.113281 18.59375 L 15.890625 18.5 C 15.914062 18.699219 15.980469 18.851562 16.089844 18.957031 C 16.199219 19.0625 16.332031 19.113281 16.484375 19.113281 C 16.652344 19.113281 16.789062 19.050781 16.902344 18.925781 C 17.015625 18.796875 17.074219 18.628906 17.074219 18.414062 C 17.074219 18.214844 17.019531 18.054688 16.910156 17.933594 C 16.800781 17.816406 16.667969 17.757812 16.511719 17.757812 C 16.410156 17.757812 16.289062 17.777344 16.144531 17.816406 L 16.234375 17.164062 C 16.449219 17.167969 16.617188 17.121094 16.730469 17.019531 C 16.84375 16.921875 16.902344 16.789062 16.902344 16.621094 C 16.902344 16.480469 16.859375 16.367188 16.777344 16.285156 C 16.691406 16.199219 16.582031 16.15625 16.441406 16.15625 C 16.304688 16.15625 16.1875 16.207031 16.089844 16.300781 C 15.992188 16.394531 15.933594 16.535156 15.914062 16.71875 L 15.171875 16.59375 C 15.222656 16.339844 15.300781 16.136719 15.40625 15.984375 C 15.507812 15.832031 15.652344 15.714844 15.839844 15.628906 C 16.027344 15.539062 16.234375 15.496094 16.464844 15.496094 C 16.859375 15.496094 17.175781 15.621094 17.414062 15.875 C 17.609375 16.082031 17.710938 16.3125 17.710938 16.574219 C 17.710938 16.941406 17.507812 17.234375 17.105469 17.453125 C 17.347656 17.503906 17.539062 17.621094 17.683594 17.800781 C 17.824219 17.980469 17.898438 18.195312 17.898438 18.449219 C 17.898438 18.816406 17.761719 19.132812 17.496094 19.390625 C 17.226562 19.648438 16.890625 19.78125 16.492188 19.78125 C 16.109375 19.78125 15.796875 19.671875 15.546875 19.453125 C 15.296875 19.234375 15.152344 18.949219 15.113281 18.59375 Z M 15.113281 18.59375 "
    />
  </g>
</svg>
