<?xml version="1.0" encoding="UTF-8"?>
<svg
  xmlns="http://www.w3.org/2000/svg"
  xmlns:xlink="http://www.w3.org/1999/xlink"
  width="24"
  height="24"
  viewBox="0 0 24 24"
  version="1.1"
>
  <g id="surface1">
    <path
      style="
        stroke: none;
        fill-rule: evenodd;
        fill: rgb(80.784314%, 57.647059%, 84.705882%);
        fill-opacity: 1;
      "
      d="M 15.273438 3.09375 L 19.125 6.949219 L 15.960938 6.949219 C 15.582031 6.949219 15.273438 6.640625 15.273438 6.261719 Z M 15.273438 3.09375 "
    />
    <path
      style="
        stroke: none;
        fill-rule: evenodd;
        fill: rgb(88.235294%, 74.509804%, 90.588235%);
        fill-opacity: 1;
      "
      d="M 5.332031 3.09375 L 15.273438 3.09375 L 15.273438 6.242188 C 15.273438 6.632812 15.589844 6.949219 15.980469 6.949219 L 19.125 6.949219 L 19.125 16.5 C 19.125 16.757812 18.914062 16.96875 18.65625 16.96875 L 5.332031 16.96875 C 5.074219 16.96875 4.863281 16.757812 4.863281 16.5 L 4.863281 3.5625 C 4.863281 3.304688 5.074219 3.09375 5.332031 3.09375 Z M 5.332031 3.09375 "
    />
    <path
      style="
        stroke: none;
        fill-rule: nonzero;
        fill: rgb(55.686275%, 14.117647%, 66.666667%);
        fill-opacity: 1;
      "
      d="M 10.015625 11.988281 L 10.015625 7.421875 C 11.332031 8.179688 12.652344 8.941406 13.972656 9.703125 Z M 10.015625 11.988281 "
    />
    <path
      style="
        stroke: none;
        fill-rule: evenodd;
        fill: rgb(55.686275%, 14.117647%, 66.666667%);
        fill-opacity: 1;
      "
      d="M 3.953125 14.371094 L 20.046875 14.371094 C 20.308594 14.371094 20.546875 14.476562 20.71875 14.652344 C 20.894531 14.824219 21 15.066406 21 15.328125 L 21 19.949219 C 21 20.210938 20.894531 20.449219 20.71875 20.625 C 20.546875 20.796875 20.308594 20.90625 20.046875 20.90625 L 3.953125 20.90625 C 3.691406 20.90625 3.453125 20.796875 3.28125 20.625 C 3.105469 20.449219 3 20.210938 3 19.949219 L 3 15.328125 C 3 15.066406 3.105469 14.824219 3.28125 14.652344 C 3.453125 14.476562 3.691406 14.371094 3.953125 14.371094 Z M 3.953125 14.371094 "
    />
    <path
      style="
        stroke: none;
        fill-rule: nonzero;
        fill: rgb(100%, 100%, 100%);
        fill-opacity: 1;
      "
      d="M 6.457031 19.742188 L 6.457031 15.550781 L 7.726562 15.550781 L 8.488281 18.410156 L 9.238281 15.550781 L 10.507812 15.550781 L 10.507812 19.742188 L 9.722656 19.742188 L 9.722656 16.441406 L 8.890625 19.742188 L 8.074219 19.742188 L 7.246094 16.441406 L 7.246094 19.742188 Z M 11.351562 19.742188 L 11.351562 15.550781 L 12.710938 15.550781 C 13.222656 15.550781 13.558594 15.570312 13.714844 15.613281 C 13.957031 15.675781 14.160156 15.8125 14.320312 16.023438 C 14.484375 16.234375 14.5625 16.507812 14.5625 16.839844 C 14.5625 17.097656 14.515625 17.3125 14.421875 17.488281 C 14.328125 17.664062 14.210938 17.800781 14.066406 17.902344 C 13.921875 18.003906 13.777344 18.070312 13.628906 18.101562 C 13.425781 18.140625 13.132812 18.160156 12.75 18.160156 L 12.199219 18.160156 L 12.199219 19.742188 Z M 12.199219 16.257812 L 12.199219 17.449219 L 12.660156 17.449219 C 12.996094 17.449219 13.21875 17.425781 13.332031 17.382812 C 13.441406 17.339844 13.53125 17.269531 13.59375 17.175781 C 13.660156 17.082031 13.691406 16.976562 13.691406 16.851562 C 13.691406 16.699219 13.644531 16.574219 13.554688 16.472656 C 13.46875 16.375 13.351562 16.3125 13.214844 16.289062 C 13.113281 16.269531 12.910156 16.257812 12.605469 16.257812 Z M 16.65625 19.742188 L 16.65625 18.898438 L 14.941406 18.898438 L 14.941406 18.195312 L 16.761719 15.53125 L 17.4375 15.53125 L 17.4375 18.191406 L 17.957031 18.191406 L 17.957031 18.898438 L 17.4375 18.898438 L 17.4375 19.742188 Z M 16.65625 18.191406 L 16.65625 16.757812 L 15.695312 18.191406 Z M 16.65625 18.191406 "
    />
  </g>
</svg>
