<?xml version="1.0" encoding="UTF-8"?>
<svg
  xmlns="http://www.w3.org/2000/svg"
  xmlns:xlink="http://www.w3.org/1999/xlink"
  width="24"
  height="24"
  viewBox="0 0 24 24"
  version="1.1"
>
  <g id="surface1">
    <path
      style="
        stroke: none;
        fill-rule: evenodd;
        fill: rgb(95.686275%, 31.764706%, 11.764706%);
        fill-opacity: 1;
      "
      d="M 15.273438 3.09375 L 19.125 6.949219 L 15.960938 6.949219 C 15.582031 6.949219 15.273438 6.640625 15.273438 6.261719 Z M 15.273438 3.09375 "
    />
    <path
      style="
        stroke: none;
        fill-rule: evenodd;
        fill: rgb(100%, 67.058824%, 56.862745%);
        fill-opacity: 1;
      "
      d="M 5.332031 3.09375 L 15.273438 3.09375 L 15.273438 6.242188 C 15.273438 6.632812 15.589844 6.949219 15.980469 6.949219 L 19.125 6.949219 L 19.125 16.5 C 19.125 16.757812 18.914062 16.96875 18.65625 16.96875 L 5.332031 16.96875 C 5.074219 16.96875 4.863281 16.757812 4.863281 16.5 L 4.863281 3.5625 C 4.863281 3.304688 5.074219 3.09375 5.332031 3.09375 Z M 5.332031 3.09375 "
    />
    <path
      style="
        stroke: none;
        fill-rule: nonzero;
        fill: rgb(95.686275%, 31.764706%, 11.764706%);
        fill-opacity: 1;
      "
      d="M 10.015625 11.988281 L 10.015625 7.421875 C 11.335938 8.179688 12.652344 8.941406 13.972656 9.703125 Z M 10.015625 11.988281 "
    />
    <path
      style="
        stroke: none;
        fill-rule: evenodd;
        fill: rgb(95.686275%, 31.764706%, 11.764706%);
        fill-opacity: 1;
      "
      d="M 3.953125 14.371094 L 20.046875 14.371094 C 20.308594 14.371094 20.546875 14.476562 20.71875 14.652344 C 20.894531 14.824219 21 15.066406 21 15.328125 L 21 19.949219 C 21 20.210938 20.894531 20.449219 20.71875 20.625 C 20.546875 20.796875 20.308594 20.90625 20.046875 20.90625 L 3.953125 20.90625 C 3.691406 20.90625 3.453125 20.796875 3.28125 20.625 C 3.105469 20.449219 3 20.210938 3 19.949219 L 3 15.328125 C 3 15.066406 3.105469 14.824219 3.28125 14.652344 C 3.453125 14.476562 3.691406 14.371094 3.953125 14.371094 Z M 3.953125 14.371094 "
    />
    <path
      style="
        stroke: none;
        fill-rule: nonzero;
        fill: rgb(100%, 100%, 100%);
        fill-opacity: 1;
      "
      d="M 3.964844 19.734375 L 3.964844 15.539062 L 5.234375 15.539062 L 5.992188 18.402344 L 6.746094 15.539062 L 8.015625 15.539062 L 8.015625 19.734375 L 7.230469 19.734375 L 7.230469 16.433594 L 6.398438 19.734375 L 5.582031 19.734375 L 4.75 16.433594 L 4.75 19.734375 Z M 8.859375 19.734375 L 8.859375 15.539062 L 10.214844 15.539062 C 10.730469 15.539062 11.066406 15.5625 11.222656 15.605469 C 11.464844 15.667969 11.664062 15.804688 11.828125 16.015625 C 11.988281 16.226562 12.070312 16.496094 12.070312 16.832031 C 12.070312 17.089844 12.023438 17.304688 11.929688 17.480469 C 11.835938 17.65625 11.71875 17.792969 11.574219 17.894531 C 11.429688 17.992188 11.285156 18.058594 11.136719 18.09375 C 10.933594 18.132812 10.640625 18.152344 10.257812 18.152344 L 9.703125 18.152344 L 9.703125 19.734375 Z M 9.703125 16.25 L 9.703125 17.441406 L 10.167969 17.441406 C 10.5 17.441406 10.726562 17.417969 10.835938 17.375 C 10.949219 17.332031 11.039062 17.261719 11.101562 17.167969 C 11.164062 17.074219 11.199219 16.964844 11.199219 16.84375 C 11.199219 16.691406 11.152344 16.5625 11.0625 16.464844 C 10.972656 16.367188 10.859375 16.304688 10.722656 16.277344 C 10.621094 16.257812 10.417969 16.25 10.113281 16.25 Z M 12.765625 19.734375 L 12.765625 15.539062 L 15.875 15.539062 L 15.875 16.25 L 13.613281 16.25 L 13.613281 17.179688 L 15.71875 17.179688 L 15.71875 17.886719 L 13.613281 17.886719 L 13.613281 19.027344 L 15.957031 19.027344 L 15.957031 19.734375 Z M 18.625 18.191406 L 18.625 17.484375 L 20.449219 17.484375 L 20.449219 19.15625 C 20.273438 19.328125 20.015625 19.480469 19.679688 19.609375 C 19.34375 19.742188 19 19.804688 18.65625 19.804688 C 18.21875 19.804688 17.835938 19.714844 17.507812 19.53125 C 17.183594 19.347656 16.9375 19.082031 16.773438 18.742188 C 16.609375 18.398438 16.527344 18.027344 16.527344 17.625 C 16.527344 17.1875 16.621094 16.796875 16.800781 16.457031 C 16.984375 16.121094 17.253906 15.859375 17.605469 15.679688 C 17.875 15.539062 18.210938 15.46875 18.609375 15.46875 C 19.132812 15.46875 19.539062 15.578125 19.832031 15.796875 C 20.125 16.015625 20.3125 16.316406 20.394531 16.703125 L 19.554688 16.859375 C 19.496094 16.652344 19.382812 16.492188 19.222656 16.371094 C 19.058594 16.253906 18.855469 16.191406 18.609375 16.191406 C 18.242188 16.191406 17.945312 16.308594 17.726562 16.542969 C 17.507812 16.78125 17.402344 17.128906 17.402344 17.589844 C 17.402344 18.085938 17.511719 18.460938 17.734375 18.710938 C 17.953125 18.957031 18.242188 19.082031 18.601562 19.082031 C 18.78125 19.082031 18.957031 19.046875 19.136719 18.976562 C 19.3125 18.910156 19.46875 18.824219 19.59375 18.726562 L 19.59375 18.191406 Z M 18.625 18.191406 "
    />
  </g>
</svg>
