<?xml version="1.0" encoding="UTF-8"?>
<svg
  xmlns="http://www.w3.org/2000/svg"
  xmlns:xlink="http://www.w3.org/1999/xlink"
  width="24"
  height="24"
  viewBox="0 0 24 24"
  version="1.1"
>
  <g id="surface1">
    <path
      style="
        stroke: none;
        fill-rule: evenodd;
        fill: rgb(80.784314%, 57.647059%, 84.705882%);
        fill-opacity: 1;
      "
      d="M 15.273438 3.09375 L 19.125 6.949219 L 15.960938 6.949219 C 15.582031 6.949219 15.273438 6.640625 15.273438 6.261719 Z M 15.273438 3.09375 "
    />
    <path
      style="
        stroke: none;
        fill-rule: evenodd;
        fill: rgb(88.235294%, 74.509804%, 90.588235%);
        fill-opacity: 1;
      "
      d="M 5.332031 3.09375 L 15.273438 3.09375 L 15.273438 6.242188 C 15.273438 6.632812 15.589844 6.949219 15.980469 6.949219 L 19.125 6.949219 L 19.125 16.5 C 19.125 16.757812 18.914062 16.96875 18.65625 16.96875 L 5.332031 16.96875 C 5.074219 16.96875 4.863281 16.757812 4.863281 16.5 L 4.863281 3.5625 C 4.863281 3.304688 5.074219 3.09375 5.332031 3.09375 Z M 5.332031 3.09375 "
    />
    <path
      style="
        stroke: none;
        fill-rule: nonzero;
        fill: rgb(55.686275%, 14.117647%, 66.666667%);
        fill-opacity: 1;
      "
      d="M 10.015625 11.988281 L 10.015625 7.421875 C 11.332031 8.179688 12.652344 8.941406 13.972656 9.703125 Z M 10.015625 11.988281 "
    />
    <path
      style="
        stroke: none;
        fill-rule: evenodd;
        fill: rgb(55.686275%, 14.117647%, 66.666667%);
        fill-opacity: 1;
      "
      d="M 3.953125 14.371094 L 20.046875 14.371094 C 20.308594 14.371094 20.546875 14.476562 20.71875 14.652344 C 20.894531 14.824219 21 15.066406 21 15.328125 L 21 19.949219 C 21 20.210938 20.894531 20.449219 20.71875 20.625 C 20.546875 20.796875 20.308594 20.90625 20.046875 20.90625 L 3.953125 20.90625 C 3.691406 20.90625 3.453125 20.796875 3.28125 20.625 C 3.105469 20.449219 3 20.210938 3 19.949219 L 3 15.328125 C 3 15.066406 3.105469 14.824219 3.28125 14.652344 C 3.453125 14.476562 3.691406 14.371094 3.953125 14.371094 Z M 3.953125 14.371094 "
    />
    <path
      style="
        stroke: none;
        fill-rule: nonzero;
        fill: rgb(100%, 100%, 100%);
        fill-opacity: 1;
      "
      d="M 5.917969 19.734375 L 5.917969 15.539062 L 7.1875 15.539062 L 7.949219 18.402344 L 8.699219 15.539062 L 9.96875 15.539062 L 9.96875 19.734375 L 9.183594 19.734375 L 9.183594 16.433594 L 8.351562 19.734375 L 7.535156 19.734375 L 6.707031 16.433594 L 6.707031 19.734375 Z M 10.8125 19.734375 L 10.8125 15.539062 L 12.167969 15.539062 C 12.683594 15.539062 13.019531 15.5625 13.175781 15.605469 C 13.417969 15.667969 13.617188 15.804688 13.78125 16.015625 C 13.941406 16.226562 14.023438 16.496094 14.023438 16.832031 C 14.023438 17.089844 13.976562 17.304688 13.882812 17.480469 C 13.789062 17.65625 13.671875 17.792969 13.527344 17.894531 C 13.382812 17.992188 13.238281 18.058594 13.089844 18.09375 C 12.886719 18.132812 12.59375 18.152344 12.210938 18.152344 L 11.65625 18.152344 L 11.65625 19.734375 Z M 11.65625 16.25 L 11.65625 17.441406 L 12.121094 17.441406 C 12.453125 17.441406 12.679688 17.417969 12.789062 17.375 C 12.902344 17.332031 12.992188 17.261719 13.054688 17.167969 C 13.117188 17.074219 13.152344 16.964844 13.152344 16.84375 C 13.152344 16.691406 13.105469 16.5625 13.015625 16.464844 C 12.925781 16.367188 12.8125 16.304688 12.675781 16.277344 C 12.574219 16.257812 12.371094 16.25 12.066406 16.25 Z M 16.671875 18.191406 L 16.671875 17.484375 L 18.496094 17.484375 L 18.496094 19.15625 C 18.320312 19.328125 18.0625 19.480469 17.722656 19.609375 C 17.386719 19.742188 17.046875 19.804688 16.703125 19.804688 C 16.261719 19.804688 15.878906 19.714844 15.554688 19.53125 C 15.226562 19.347656 14.984375 19.082031 14.820312 18.742188 C 14.65625 18.398438 14.574219 18.027344 14.574219 17.625 C 14.574219 17.1875 14.664062 16.796875 14.847656 16.457031 C 15.03125 16.121094 15.296875 15.859375 15.652344 15.679688 C 15.921875 15.539062 16.257812 15.46875 16.65625 15.46875 C 17.175781 15.46875 17.582031 15.578125 17.875 15.796875 C 18.167969 16.015625 18.359375 16.316406 18.441406 16.703125 L 17.601562 16.859375 C 17.542969 16.652344 17.429688 16.492188 17.265625 16.371094 C 17.105469 16.253906 16.902344 16.191406 16.65625 16.191406 C 16.285156 16.191406 15.992188 16.308594 15.773438 16.542969 C 15.554688 16.78125 15.445312 17.128906 15.445312 17.589844 C 15.445312 18.085938 15.558594 18.460938 15.777344 18.710938 C 16 18.957031 16.289062 19.082031 16.648438 19.082031 C 16.824219 19.082031 17.003906 19.046875 17.183594 18.976562 C 17.359375 18.910156 17.511719 18.824219 17.640625 18.726562 L 17.640625 18.191406 Z M 16.671875 18.191406 "
    />
  </g>
</svg>
