<?xml version="1.0" encoding="UTF-8"?>
<svg
  xmlns="http://www.w3.org/2000/svg"
  xmlns:xlink="http://www.w3.org/1999/xlink"
  width="24"
  height="24"
  viewBox="0 0 24 24"
  version="1.1"
>
  <g id="surface1">
    <path
      style="
        stroke: none;
        fill-rule: evenodd;
        fill: rgb(93.72549%, 60.392157%, 60.392157%);
        fill-opacity: 1;
      "
      d="M 15.273438 3.09375 L 19.125 6.949219 L 15.960938 6.949219 C 15.582031 6.949219 15.273438 6.640625 15.273438 6.261719 Z M 15.273438 3.09375 "
    />
    <path
      style="
        stroke: none;
        fill-rule: evenodd;
        fill: rgb(100%, 80.392157%, 82.352941%);
        fill-opacity: 1;
      "
      d="M 5.332031 3.09375 L 15.273438 3.09375 L 15.273438 6.242188 C 15.273438 6.632812 15.589844 6.949219 15.980469 6.949219 L 19.125 6.949219 L 19.125 16.5 C 19.125 16.757812 18.914062 16.96875 18.65625 16.96875 L 5.332031 16.96875 C 5.074219 16.96875 4.863281 16.757812 4.863281 16.5 L 4.863281 3.5625 C 4.863281 3.304688 5.074219 3.09375 5.332031 3.09375 Z M 5.332031 3.09375 "
    />
    <path
      style="
        stroke: none;
        fill-rule: nonzero;
        fill: rgb(82.745098%, 18.431373%, 18.431373%);
        fill-opacity: 1;
      "
      d="M 7.875 8.945312 L 16.5 8.945312 L 16.5 9.695312 L 7.875 9.695312 Z M 7.875 8.945312 "
    />
    <path
      style="
        stroke: none;
        fill-rule: nonzero;
        fill: rgb(82.745098%, 18.431373%, 18.431373%);
        fill-opacity: 1;
      "
      d="M 7.875 11.570312 L 16.5 11.570312 L 16.5 12.320312 L 7.875 12.320312 Z M 7.875 11.570312 "
    />
    <path
      style="
        stroke: none;
        fill-rule: evenodd;
        fill: rgb(82.745098%, 18.431373%, 18.431373%);
        fill-opacity: 1;
      "
      d="M 3.953125 14.371094 L 20.046875 14.371094 C 20.308594 14.371094 20.546875 14.476562 20.71875 14.652344 C 20.894531 14.824219 21 15.066406 21 15.328125 L 21 19.949219 C 21 20.210938 20.894531 20.449219 20.71875 20.625 C 20.546875 20.796875 20.308594 20.90625 20.046875 20.90625 L 3.953125 20.90625 C 3.691406 20.90625 3.453125 20.796875 3.28125 20.625 C 3.105469 20.449219 3 20.210938 3 19.949219 L 3 15.328125 C 3 15.066406 3.105469 14.824219 3.28125 14.652344 C 3.453125 14.476562 3.691406 14.371094 3.953125 14.371094 Z M 3.953125 14.371094 "
    />
    <path
      style="
        stroke: none;
        fill-rule: nonzero;
        fill: rgb(100%, 100%, 100%);
        fill-opacity: 1;
      "
      d="M 6.703125 19.734375 L 6.703125 15.539062 L 8.0625 15.539062 C 8.574219 15.539062 8.910156 15.5625 9.066406 15.605469 C 9.308594 15.667969 9.511719 15.804688 9.671875 16.015625 C 9.835938 16.226562 9.914062 16.496094 9.914062 16.832031 C 9.914062 17.089844 9.871094 17.304688 9.773438 17.480469 C 9.679688 17.65625 9.5625 17.792969 9.417969 17.894531 C 9.273438 17.992188 9.128906 18.058594 8.980469 18.09375 C 8.777344 18.132812 8.484375 18.152344 8.101562 18.152344 L 7.550781 18.152344 L 7.550781 19.734375 Z M 7.550781 16.25 L 7.550781 17.441406 L 8.011719 17.441406 C 8.347656 17.441406 8.570312 17.417969 8.683594 17.375 C 8.796875 17.332031 8.882812 17.261719 8.945312 17.167969 C 9.011719 17.074219 9.042969 16.964844 9.042969 16.84375 C 9.042969 16.691406 8.996094 16.5625 8.90625 16.464844 C 8.820312 16.367188 8.707031 16.304688 8.570312 16.277344 C 8.464844 16.257812 8.261719 16.25 7.957031 16.25 Z M 10.609375 15.539062 L 12.15625 15.539062 C 12.503906 15.539062 12.769531 15.566406 12.953125 15.621094 C 13.199219 15.691406 13.410156 15.820312 13.585938 16.007812 C 13.761719 16.191406 13.894531 16.417969 13.988281 16.6875 C 14.078125 16.953125 14.125 17.285156 14.125 17.679688 C 14.125 18.023438 14.082031 18.320312 13.996094 18.570312 C 13.890625 18.875 13.742188 19.121094 13.546875 19.3125 C 13.398438 19.453125 13.199219 19.566406 12.949219 19.644531 C 12.765625 19.707031 12.515625 19.734375 12.199219 19.734375 L 10.609375 19.734375 Z M 11.453125 16.25 L 11.453125 19.027344 L 12.085938 19.027344 C 12.324219 19.027344 12.492188 19.015625 12.597656 18.988281 C 12.734375 18.953125 12.851562 18.894531 12.941406 18.8125 C 13.03125 18.730469 13.105469 18.597656 13.164062 18.410156 C 13.21875 18.222656 13.25 17.964844 13.25 17.640625 C 13.25 17.316406 13.21875 17.066406 13.164062 16.894531 C 13.105469 16.71875 13.023438 16.585938 12.921875 16.488281 C 12.820312 16.390625 12.6875 16.324219 12.53125 16.289062 C 12.410156 16.261719 12.179688 16.25 11.835938 16.25 Z M 14.847656 19.734375 L 14.847656 15.539062 L 17.722656 15.539062 L 17.722656 16.25 L 15.695312 16.25 L 15.695312 17.242188 L 17.445312 17.242188 L 17.445312 17.953125 L 15.695312 17.953125 L 15.695312 19.734375 Z M 14.847656 19.734375 "
    />
  </g>
</svg>
