<?xml version="1.0" encoding="UTF-8"?>
<svg
  xmlns="http://www.w3.org/2000/svg"
  xmlns:xlink="http://www.w3.org/1999/xlink"
  width="24"
  height="24"
  viewBox="0 0 24 24"
  version="1.1"
>
  <g id="surface1">
    <path
      style="
        stroke: none;
        fill-rule: evenodd;
        fill: rgb(93.72549%, 60.392157%, 60.392157%);
        fill-opacity: 1;
      "
      d="M 15.273438 3.09375 L 19.125 6.949219 L 15.960938 6.949219 C 15.582031 6.949219 15.273438 6.640625 15.273438 6.261719 Z M 15.273438 3.09375 "
    />
    <path
      style="
        stroke: none;
        fill-rule: evenodd;
        fill: rgb(100%, 80.392157%, 82.352941%);
        fill-opacity: 1;
      "
      d="M 5.332031 3.09375 L 15.273438 3.09375 L 15.273438 6.242188 C 15.273438 6.632812 15.589844 6.949219 15.980469 6.949219 L 19.125 6.949219 L 19.125 16.5 C 19.125 16.757812 18.914062 16.96875 18.65625 16.96875 L 5.332031 16.96875 C 5.074219 16.96875 4.863281 16.757812 4.863281 16.5 L 4.863281 3.5625 C 4.863281 3.304688 5.074219 3.09375 5.332031 3.09375 Z M 5.332031 3.09375 "
    />
    <path
      style="
        stroke: none;
        fill-rule: nonzero;
        fill: rgb(82.745098%, 18.431373%, 18.431373%);
        fill-opacity: 1;
      "
      d="M 7.875 8.945312 L 16.5 8.945312 L 16.5 9.695312 L 7.875 9.695312 Z M 7.875 8.945312 "
    />
    <path
      style="
        stroke: none;
        fill-rule: nonzero;
        fill: rgb(82.745098%, 18.431373%, 18.431373%);
        fill-opacity: 1;
      "
      d="M 7.875 11.570312 L 16.5 11.570312 L 16.5 12.320312 L 7.875 12.320312 Z M 7.875 11.570312 "
    />
    <path
      style="
        stroke: none;
        fill-rule: evenodd;
        fill: rgb(82.745098%, 18.431373%, 18.431373%);
        fill-opacity: 1;
      "
      d="M 3.953125 14.371094 L 20.046875 14.371094 C 20.308594 14.371094 20.546875 14.476562 20.71875 14.652344 C 20.894531 14.824219 21 15.066406 21 15.328125 L 21 19.949219 C 21 20.210938 20.894531 20.449219 20.71875 20.625 C 20.546875 20.796875 20.308594 20.90625 20.046875 20.90625 L 3.953125 20.90625 C 3.691406 20.90625 3.453125 20.796875 3.28125 20.625 C 3.105469 20.449219 3 20.210938 3 19.949219 L 3 15.328125 C 3 15.066406 3.105469 14.824219 3.28125 14.652344 C 3.453125 14.476562 3.691406 14.371094 3.953125 14.371094 Z M 3.953125 14.371094 "
    />
    <path
      style="
        stroke: none;
        fill-rule: nonzero;
        fill: rgb(100%, 100%, 100%);
        fill-opacity: 1;
      "
      d="M 6.253906 19.734375 L 6.253906 15.539062 L 7.613281 15.539062 C 8.128906 15.539062 8.464844 15.5625 8.621094 15.605469 C 8.859375 15.667969 9.0625 15.804688 9.226562 16.015625 C 9.386719 16.226562 9.46875 16.496094 9.46875 16.832031 C 9.46875 17.089844 9.421875 17.304688 9.328125 17.480469 C 9.234375 17.65625 9.117188 17.792969 8.972656 17.894531 C 8.828125 17.992188 8.679688 18.058594 8.53125 18.09375 C 8.332031 18.132812 8.039062 18.152344 7.652344 18.152344 L 7.101562 18.152344 L 7.101562 19.734375 Z M 7.101562 16.25 L 7.101562 17.441406 L 7.566406 17.441406 C 7.898438 17.441406 8.121094 17.417969 8.234375 17.375 C 8.347656 17.332031 8.433594 17.261719 8.5 17.167969 C 8.5625 17.074219 8.59375 16.964844 8.59375 16.84375 C 8.59375 16.691406 8.550781 16.5625 8.460938 16.464844 C 8.371094 16.367188 8.257812 16.304688 8.121094 16.277344 C 8.019531 16.257812 7.816406 16.25 7.511719 16.25 Z M 10.171875 19.734375 L 10.171875 15.539062 L 10.996094 15.539062 L 12.710938 18.339844 L 12.710938 15.539062 L 13.5 15.539062 L 13.5 19.734375 L 12.648438 19.734375 L 10.957031 17 L 10.957031 19.734375 Z M 16.347656 18.191406 L 16.347656 17.484375 L 18.171875 17.484375 L 18.171875 19.15625 C 17.992188 19.328125 17.738281 19.480469 17.398438 19.609375 C 17.0625 19.742188 16.722656 19.804688 16.378906 19.804688 C 15.9375 19.804688 15.554688 19.714844 15.230469 19.53125 C 14.902344 19.347656 14.660156 19.082031 14.496094 18.742188 C 14.332031 18.398438 14.25 18.027344 14.25 17.625 C 14.25 17.1875 14.339844 16.796875 14.523438 16.457031 C 14.707031 16.121094 14.972656 15.859375 15.328125 15.679688 C 15.597656 15.539062 15.929688 15.46875 16.332031 15.46875 C 16.851562 15.46875 17.257812 15.578125 17.550781 15.796875 C 17.84375 16.015625 18.03125 16.316406 18.117188 16.703125 L 17.277344 16.859375 C 17.214844 16.652344 17.105469 16.492188 16.941406 16.371094 C 16.777344 16.253906 16.574219 16.191406 16.332031 16.191406 C 15.960938 16.191406 15.667969 16.308594 15.449219 16.542969 C 15.230469 16.78125 15.121094 17.128906 15.121094 17.589844 C 15.121094 18.085938 15.230469 18.460938 15.453125 18.710938 C 15.675781 18.957031 15.964844 19.082031 16.324219 19.082031 C 16.5 19.082031 16.679688 19.046875 16.855469 18.976562 C 17.035156 18.910156 17.1875 18.824219 17.316406 18.726562 L 17.316406 18.191406 Z M 16.347656 18.191406 "
    />
  </g>
</svg>
