<?xml version="1.0" encoding="UTF-8"?>
<svg
  xmlns="http://www.w3.org/2000/svg"
  xmlns:xlink="http://www.w3.org/1999/xlink"
  width="24"
  height="24"
  viewBox="0 0 24 24"
  version="1.1"
>
  <g id="surface1">
    <path
      style="
        stroke: none;
        fill-rule: evenodd;
        fill: rgb(93.72549%, 60.392157%, 60.392157%);
        fill-opacity: 1;
      "
      d="M 15.273438 3 L 19.125 6.855469 L 15.960938 6.855469 C 15.582031 6.855469 15.273438 6.546875 15.273438 6.167969 Z M 15.273438 3 "
    />
    <path
      style="
        stroke: none;
        fill-rule: evenodd;
        fill: rgb(100%, 80.392157%, 82.352941%);
        fill-opacity: 1;
      "
      d="M 5.332031 3 L 15.273438 3 L 15.273438 6.148438 C 15.273438 6.539062 15.589844 6.855469 15.980469 6.855469 L 19.125 6.855469 L 19.125 16.40625 C 19.125 16.664062 18.914062 16.875 18.65625 16.875 L 5.332031 16.875 C 5.074219 16.875 4.863281 16.664062 4.863281 16.40625 L 4.863281 3.46875 C 4.863281 3.210938 5.074219 3 5.332031 3 Z M 5.332031 3 "
    />
    <path
      style="
        stroke: none;
        fill-rule: nonzero;
        fill: rgb(82.745098%, 18.431373%, 18.431373%);
        fill-opacity: 1;
      "
      d="M 7.875 8.851562 L 16.5 8.851562 L 16.5 9.601562 L 7.875 9.601562 Z M 7.875 8.851562 "
    />
    <path
      style="
        stroke: none;
        fill-rule: nonzero;
        fill: rgb(82.745098%, 18.431373%, 18.431373%);
        fill-opacity: 1;
      "
      d="M 7.875 11.476562 L 16.5 11.476562 L 16.5 12.226562 L 7.875 12.226562 Z M 7.875 11.476562 "
    />
    <path
      style="
        stroke: none;
        fill-rule: evenodd;
        fill: rgb(82.745098%, 18.431373%, 18.431373%);
        fill-opacity: 1;
      "
      d="M 3.953125 14.277344 L 20.046875 14.277344 C 20.308594 14.277344 20.546875 14.382812 20.71875 14.558594 C 20.894531 14.730469 21 14.972656 21 15.234375 L 21 19.855469 C 21 20.117188 20.894531 20.355469 20.71875 20.53125 C 20.546875 20.703125 20.308594 20.8125 20.046875 20.8125 L 3.953125 20.8125 C 3.691406 20.8125 3.453125 20.703125 3.28125 20.53125 C 3.105469 20.355469 3 20.117188 3 19.855469 L 3 15.234375 C 3 14.972656 3.105469 14.730469 3.28125 14.558594 C 3.453125 14.382812 3.691406 14.277344 3.953125 14.277344 Z M 3.953125 14.277344 "
    />
    <path
      style="
        stroke: none;
        fill-rule: nonzero;
        fill: rgb(100%, 100%, 100%);
        fill-opacity: 1;
      "
      d="M 6.789062 19.640625 L 6.789062 15.445312 L 8.148438 15.445312 C 8.664062 15.445312 9 15.46875 9.15625 15.511719 C 9.394531 15.574219 9.597656 15.710938 9.757812 15.921875 C 9.921875 16.132812 10.003906 16.402344 10.003906 16.738281 C 10.003906 16.996094 9.957031 17.210938 9.863281 17.386719 C 9.769531 17.5625 9.648438 17.699219 9.503906 17.800781 C 9.363281 17.898438 9.214844 17.964844 9.066406 18 C 8.863281 18.039062 8.570312 18.058594 8.1875 18.058594 L 7.636719 18.058594 L 7.636719 19.640625 Z M 7.636719 16.15625 L 7.636719 17.347656 L 8.097656 17.347656 C 8.433594 17.347656 8.65625 17.324219 8.769531 17.28125 C 8.882812 17.238281 8.96875 17.167969 9.035156 17.074219 C 9.097656 16.980469 9.128906 16.871094 9.128906 16.75 C 9.128906 16.597656 9.085938 16.46875 8.996094 16.371094 C 8.90625 16.273438 8.792969 16.210938 8.65625 16.183594 C 8.554688 16.164062 8.347656 16.15625 8.046875 16.15625 Z M 10.699219 19.640625 L 10.699219 15.445312 L 12.054688 15.445312 C 12.570312 15.445312 12.90625 15.46875 13.0625 15.511719 C 13.304688 15.574219 13.503906 15.710938 13.667969 15.921875 C 13.828125 16.132812 13.910156 16.402344 13.910156 16.738281 C 13.910156 16.996094 13.863281 17.210938 13.769531 17.386719 C 13.675781 17.5625 13.558594 17.699219 13.414062 17.800781 C 13.269531 17.898438 13.125 17.964844 12.976562 18 C 12.773438 18.039062 12.480469 18.058594 12.097656 18.058594 L 11.542969 18.058594 L 11.542969 19.640625 Z M 11.542969 16.15625 L 11.542969 17.347656 L 12.007812 17.347656 C 12.339844 17.347656 12.566406 17.324219 12.675781 17.28125 C 12.789062 17.238281 12.878906 17.167969 12.941406 17.074219 C 13.003906 16.980469 13.039062 16.871094 13.039062 16.75 C 13.039062 16.597656 12.992188 16.46875 12.902344 16.371094 C 12.8125 16.273438 12.699219 16.210938 12.5625 16.183594 C 12.460938 16.164062 12.257812 16.15625 11.953125 16.15625 Z M 15.550781 19.640625 L 15.550781 16.15625 L 14.304688 16.15625 L 14.304688 15.445312 L 17.636719 15.445312 L 17.636719 16.15625 L 16.398438 16.15625 L 16.398438 19.640625 L 15.546875 19.640625 Z M 15.550781 19.640625 "
    />
  </g>
</svg>
