<?xml version="1.0" encoding="UTF-8"?>
<svg
  xmlns="http://www.w3.org/2000/svg"
  xmlns:xlink="http://www.w3.org/1999/xlink"
  width="24"
  height="24"
  viewBox="0 0 24 24"
  version="1.1"
>
  <g id="surface1">
    <path
      style="
        stroke: none;
        fill-rule: evenodd;
        fill: rgb(47.45098%, 52.54902%, 79.607843%);
        fill-opacity: 1;
      "
      d="M 15.273438 3.09375 L 19.125 6.949219 L 15.960938 6.949219 C 15.582031 6.949219 15.273438 6.640625 15.273438 6.261719 Z M 15.273438 3.09375 "
    />
    <path
      style="
        stroke: none;
        fill-rule: evenodd;
        fill: rgb(77.254902%, 79.215686%, 91.372549%);
        fill-opacity: 1;
      "
      d="M 5.332031 3.09375 L 15.273438 3.09375 L 15.273438 6.242188 C 15.273438 6.632812 15.589844 6.949219 15.980469 6.949219 L 19.125 6.949219 L 19.125 16.5 C 19.125 16.757812 18.914062 16.96875 18.65625 16.96875 L 5.332031 16.96875 C 5.074219 16.96875 4.863281 16.757812 4.863281 16.5 L 4.863281 3.5625 C 4.863281 3.304688 5.074219 3.09375 5.332031 3.09375 Z M 5.332031 3.09375 "
    />
    <path
      style="
        stroke: none;
        fill-rule: nonzero;
        fill: rgb(22.352941%, 28.627451%, 67.058824%);
        fill-opacity: 1;
      "
      d="M 7.875 8.945312 L 16.5 8.945312 L 16.5 9.695312 L 7.875 9.695312 Z M 7.875 8.945312 "
    />
    <path
      style="
        stroke: none;
        fill-rule: nonzero;
        fill: rgb(22.352941%, 28.627451%, 67.058824%);
        fill-opacity: 1;
      "
      d="M 7.875 11.570312 L 16.5 11.570312 L 16.5 12.320312 L 7.875 12.320312 Z M 7.875 11.570312 "
    />
    <path
      style="
        stroke: none;
        fill-rule: evenodd;
        fill: rgb(22.352941%, 28.627451%, 67.058824%);
        fill-opacity: 1;
      "
      d="M 3.953125 14.371094 L 20.046875 14.371094 C 20.308594 14.371094 20.546875 14.476562 20.71875 14.652344 C 20.894531 14.824219 21 15.066406 21 15.328125 L 21 19.949219 C 21 20.210938 20.894531 20.449219 20.71875 20.625 C 20.546875 20.796875 20.308594 20.90625 20.046875 20.90625 L 3.953125 20.90625 C 3.691406 20.90625 3.453125 20.796875 3.28125 20.625 C 3.105469 20.449219 3 20.210938 3 19.949219 L 3 15.328125 C 3 15.066406 3.105469 14.824219 3.28125 14.652344 C 3.453125 14.476562 3.691406 14.371094 3.953125 14.371094 Z M 3.953125 14.371094 "
    />
    <path
      style="
        stroke: none;
        fill-rule: nonzero;
        fill: rgb(100%, 100%, 100%);
        fill-opacity: 1;
      "
      d="M 6.546875 19.734375 L 6.546875 15.539062 L 7.90625 15.539062 C 8.421875 15.539062 8.757812 15.5625 8.914062 15.601562 C 9.152344 15.664062 9.355469 15.800781 9.519531 16.011719 C 9.679688 16.222656 9.761719 16.496094 9.761719 16.828125 C 9.761719 17.085938 9.714844 17.304688 9.621094 17.480469 C 9.527344 17.65625 9.410156 17.792969 9.265625 17.894531 C 9.121094 17.992188 8.972656 18.058594 8.824219 18.089844 C 8.625 18.132812 8.332031 18.152344 7.945312 18.152344 L 7.394531 18.152344 L 7.394531 19.734375 Z M 7.394531 16.25 L 7.394531 17.4375 L 7.859375 17.4375 C 8.191406 17.4375 8.414062 17.417969 8.527344 17.375 C 8.640625 17.328125 8.726562 17.261719 8.792969 17.167969 C 8.855469 17.074219 8.886719 16.964844 8.886719 16.839844 C 8.886719 16.6875 8.84375 16.5625 8.753906 16.464844 C 8.664062 16.363281 8.550781 16.300781 8.414062 16.277344 C 8.3125 16.257812 8.109375 16.25 7.804688 16.25 Z M 10.242188 18.371094 L 11.066406 18.289062 C 11.113281 18.566406 11.214844 18.769531 11.367188 18.898438 C 11.519531 19.027344 11.722656 19.09375 11.980469 19.09375 C 12.253906 19.09375 12.460938 19.035156 12.597656 18.917969 C 12.734375 18.804688 12.804688 18.667969 12.804688 18.515625 C 12.804688 18.414062 12.777344 18.332031 12.71875 18.261719 C 12.660156 18.191406 12.558594 18.132812 12.414062 18.082031 C 12.3125 18.046875 12.085938 17.984375 11.734375 17.898438 C 11.28125 17.785156 10.964844 17.644531 10.78125 17.480469 C 10.523438 17.25 10.394531 16.96875 10.394531 16.636719 C 10.394531 16.425781 10.453125 16.226562 10.574219 16.039062 C 10.695312 15.851562 10.871094 15.710938 11.097656 15.613281 C 11.328125 15.515625 11.601562 15.46875 11.921875 15.46875 C 12.449219 15.46875 12.847656 15.582031 13.113281 15.8125 C 13.378906 16.046875 13.519531 16.351562 13.53125 16.738281 L 12.683594 16.777344 C 12.648438 16.558594 12.570312 16.40625 12.453125 16.3125 C 12.332031 16.214844 12.152344 16.167969 11.914062 16.167969 C 11.667969 16.167969 11.476562 16.21875 11.335938 16.320312 C 11.246094 16.386719 11.203125 16.472656 11.203125 16.582031 C 11.203125 16.679688 11.246094 16.765625 11.328125 16.835938 C 11.433594 16.925781 11.695312 17.019531 12.105469 17.117188 C 12.519531 17.214844 12.824219 17.3125 13.019531 17.417969 C 13.21875 17.523438 13.371094 17.664062 13.484375 17.84375 C 13.597656 18.023438 13.652344 18.246094 13.652344 18.511719 C 13.652344 18.753906 13.585938 18.976562 13.453125 19.1875 C 13.316406 19.398438 13.128906 19.554688 12.886719 19.65625 C 12.640625 19.757812 12.335938 19.808594 11.972656 19.808594 C 11.441406 19.808594 11.035156 19.6875 10.75 19.441406 C 10.464844 19.195312 10.296875 18.839844 10.242188 18.371094 Z M 14.363281 15.539062 L 15.910156 15.539062 C 16.257812 15.539062 16.523438 15.566406 16.707031 15.621094 C 16.953125 15.691406 17.164062 15.820312 17.339844 16.007812 C 17.515625 16.191406 17.648438 16.417969 17.742188 16.683594 C 17.832031 16.953125 17.878906 17.285156 17.878906 17.675781 C 17.878906 18.023438 17.835938 18.320312 17.75 18.570312 C 17.644531 18.875 17.496094 19.121094 17.300781 19.308594 C 17.152344 19.453125 16.957031 19.566406 16.707031 19.644531 C 16.519531 19.703125 16.269531 19.734375 15.953125 19.734375 L 14.363281 19.734375 Z M 15.210938 16.25 L 15.210938 19.027344 L 15.839844 19.027344 C 16.078125 19.027344 16.25 19.015625 16.355469 18.988281 C 16.492188 18.953125 16.605469 18.894531 16.695312 18.8125 C 16.785156 18.730469 16.859375 18.59375 16.917969 18.40625 C 16.972656 18.21875 17.003906 17.964844 17.003906 17.640625 C 17.003906 17.316406 16.972656 17.066406 16.917969 16.894531 C 16.859375 16.71875 16.78125 16.582031 16.675781 16.488281 C 16.574219 16.390625 16.441406 16.324219 16.285156 16.289062 C 16.164062 16.261719 15.933594 16.25 15.589844 16.25 Z M 15.210938 16.25 "
    />
  </g>
</svg>
