<?xml version="1.0" encoding="UTF-8"?>
<svg
  xmlns="http://www.w3.org/2000/svg"
  xmlns:xlink="http://www.w3.org/1999/xlink"
  width="24"
  height="24"
  viewBox="0 0 24 24"
  version="1.1"
>
  <g id="surface1">
    <path
      style="
        stroke: none;
        fill-rule: evenodd;
        fill: rgb(93.72549%, 60.392157%, 60.392157%);
        fill-opacity: 1;
      "
      d="M 15.273438 3.09375 L 19.125 6.949219 L 15.960938 6.949219 C 15.582031 6.949219 15.273438 6.640625 15.273438 6.261719 Z M 15.273438 3.09375 "
    />
    <path
      style="
        stroke: none;
        fill-rule: evenodd;
        fill: rgb(100%, 80.392157%, 82.352941%);
        fill-opacity: 1;
      "
      d="M 5.332031 3.09375 L 15.273438 3.09375 L 15.273438 6.242188 C 15.273438 6.632812 15.589844 6.949219 15.980469 6.949219 L 19.125 6.949219 L 19.125 16.5 C 19.125 16.757812 18.914062 16.96875 18.65625 16.96875 L 5.332031 16.96875 C 5.074219 16.96875 4.863281 16.757812 4.863281 16.5 L 4.863281 3.5625 C 4.863281 3.304688 5.074219 3.09375 5.332031 3.09375 Z M 5.332031 3.09375 "
    />
    <path
      style="
        stroke: none;
        fill-rule: nonzero;
        fill: rgb(82.745098%, 18.431373%, 18.431373%);
        fill-opacity: 1;
      "
      d="M 7.875 8.945312 L 16.5 8.945312 L 16.5 9.695312 L 7.875 9.695312 Z M 7.875 8.945312 "
    />
    <path
      style="
        stroke: none;
        fill-rule: nonzero;
        fill: rgb(82.745098%, 18.431373%, 18.431373%);
        fill-opacity: 1;
      "
      d="M 7.875 11.570312 L 16.5 11.570312 L 16.5 12.320312 L 7.875 12.320312 Z M 7.875 11.570312 "
    />
    <path
      style="
        stroke: none;
        fill-rule: evenodd;
        fill: rgb(82.745098%, 18.431373%, 18.431373%);
        fill-opacity: 1;
      "
      d="M 3.953125 14.371094 L 20.046875 14.371094 C 20.308594 14.371094 20.546875 14.476562 20.71875 14.652344 C 20.894531 14.824219 21 15.066406 21 15.328125 L 21 19.949219 C 21 20.210938 20.894531 20.449219 20.71875 20.625 C 20.546875 20.796875 20.308594 20.90625 20.046875 20.90625 L 3.953125 20.90625 C 3.691406 20.90625 3.453125 20.796875 3.28125 20.625 C 3.105469 20.449219 3 20.210938 3 19.949219 L 3 15.328125 C 3 15.066406 3.105469 14.824219 3.28125 14.652344 C 3.453125 14.476562 3.691406 14.371094 3.953125 14.371094 Z M 3.953125 14.371094 "
    />
    <path
      style="
        stroke: none;
        fill-rule: nonzero;
        fill: rgb(100%, 100%, 100%);
        fill-opacity: 1;
      "
      d="M 6.097656 19.734375 L 6.097656 15.539062 L 7.878906 15.539062 C 8.328125 15.539062 8.652344 15.578125 8.855469 15.652344 C 9.058594 15.730469 9.222656 15.863281 9.34375 16.054688 C 9.46875 16.25 9.527344 16.46875 9.527344 16.714844 C 9.527344 17.03125 9.433594 17.292969 9.25 17.496094 C 9.066406 17.699219 8.789062 17.832031 8.421875 17.882812 C 8.605469 17.992188 8.753906 18.109375 8.875 18.234375 C 8.992188 18.363281 9.152344 18.589844 9.355469 18.917969 L 9.867188 19.734375 L 8.855469 19.734375 L 8.242188 18.820312 C 8.027344 18.496094 7.878906 18.289062 7.796875 18.207031 C 7.71875 18.121094 7.632812 18.0625 7.542969 18.03125 C 7.453125 18 7.3125 17.984375 7.117188 17.984375 L 6.945312 17.984375 L 6.945312 19.734375 Z M 6.945312 17.3125 L 7.570312 17.3125 C 7.976562 17.3125 8.230469 17.296875 8.332031 17.261719 C 8.433594 17.230469 8.511719 17.167969 8.570312 17.085938 C 8.625 17 8.65625 16.898438 8.65625 16.769531 C 8.65625 16.628906 8.617188 16.515625 8.542969 16.429688 C 8.46875 16.34375 8.359375 16.289062 8.222656 16.265625 C 8.15625 16.253906 7.949219 16.25 7.605469 16.25 L 6.945312 16.25 Z M 14.109375 19.734375 L 13.1875 19.734375 L 12.820312 18.78125 L 11.144531 18.78125 L 10.796875 19.734375 L 9.898438 19.734375 L 11.535156 15.539062 L 12.429688 15.539062 Z M 12.550781 18.074219 L 11.972656 16.519531 L 11.40625 18.074219 Z M 14.558594 19.734375 L 14.558594 15.539062 L 16.34375 15.539062 C 16.792969 15.539062 17.117188 15.578125 17.320312 15.652344 C 17.523438 15.730469 17.6875 15.863281 17.808594 16.054688 C 17.929688 16.25 17.992188 16.46875 17.992188 16.714844 C 17.992188 17.03125 17.898438 17.292969 17.714844 17.496094 C 17.527344 17.699219 17.25 17.832031 16.882812 17.882812 C 17.066406 17.992188 17.21875 18.109375 17.335938 18.234375 C 17.457031 18.363281 17.617188 18.589844 17.820312 18.917969 L 18.332031 19.734375 L 17.320312 19.734375 L 16.707031 18.820312 C 16.488281 18.496094 16.339844 18.289062 16.261719 18.207031 C 16.179688 18.121094 16.09375 18.0625 16.003906 18.03125 C 15.914062 18 15.773438 17.984375 15.578125 17.984375 L 15.40625 17.984375 L 15.40625 19.734375 Z M 15.40625 17.3125 L 16.035156 17.3125 C 16.441406 17.3125 16.695312 17.296875 16.796875 17.261719 C 16.894531 17.230469 16.976562 17.167969 17.03125 17.085938 C 17.089844 17 17.117188 16.898438 17.117188 16.769531 C 17.117188 16.628906 17.082031 16.515625 17.003906 16.429688 C 16.929688 16.34375 16.824219 16.289062 16.6875 16.265625 C 16.617188 16.253906 16.410156 16.25 16.066406 16.25 L 15.40625 16.25 Z M 15.40625 17.3125 "
    />
  </g>
</svg>
