<?xml version="1.0" encoding="UTF-8"?>
<svg
  xmlns="http://www.w3.org/2000/svg"
  xmlns:xlink="http://www.w3.org/1999/xlink"
  width="24"
  height="24"
  viewBox="0 0 24 24"
  version="1.1"
>
  <g id="surface1">
    <path
      style="
        stroke: none;
        fill-rule: evenodd;
        fill: rgb(70.196078%, 89.803922%, 98.823529%);
        fill-opacity: 1;
      "
      d="M 5.332031 3 L 15.273438 3 L 15.273438 6.148438 C 15.273438 6.539062 15.589844 6.855469 15.980469 6.855469 L 19.125 6.855469 L 19.125 16.40625 C 19.125 16.664062 18.914062 16.875 18.65625 16.875 L 5.332031 16.875 C 5.074219 16.875 4.863281 16.664062 4.863281 16.40625 L 4.863281 3.46875 C 4.863281 3.210938 5.074219 3 5.332031 3 Z M 5.332031 3 "
    />
    <path
      style="
        stroke: none;
        fill-rule: evenodd;
        fill: rgb(50.588235%, 83.137255%, 98.039216%);
        fill-opacity: 1;
      "
      d="M 15.273438 3 L 19.125 6.855469 L 15.960938 6.855469 C 15.582031 6.855469 15.273438 6.546875 15.273438 6.167969 Z M 15.273438 3 "
    />
    <path
      style="
        stroke: none;
        fill-rule: nonzero;
        fill: rgb(1.176471%, 60.784314%, 89.803922%);
        fill-opacity: 1;
      "
      d="M 7.875 8.851562 L 16.5 8.851562 L 16.5 9.601562 L 7.875 9.601562 Z M 7.875 8.851562 "
    />
    <path
      style="
        stroke: none;
        fill-rule: nonzero;
        fill: rgb(1.176471%, 60.784314%, 89.803922%);
        fill-opacity: 1;
      "
      d="M 7.875 11.476562 L 16.5 11.476562 L 16.5 12.226562 L 7.875 12.226562 Z M 7.875 11.476562 "
    />
    <path
      style="
        stroke: none;
        fill-rule: evenodd;
        fill: rgb(1.176471%, 60.784314%, 89.803922%);
        fill-opacity: 1;
      "
      d="M 3.953125 14.277344 L 20.046875 14.277344 C 20.308594 14.277344 20.546875 14.382812 20.71875 14.558594 C 20.894531 14.730469 21 14.972656 21 15.234375 L 21 19.855469 C 21 20.117188 20.894531 20.355469 20.71875 20.53125 C 20.546875 20.703125 20.308594 20.8125 20.046875 20.8125 L 3.953125 20.8125 C 3.691406 20.8125 3.453125 20.703125 3.28125 20.53125 C 3.105469 20.355469 3 20.117188 3 19.855469 L 3 15.234375 C 3 14.972656 3.105469 14.730469 3.28125 14.558594 C 3.453125 14.382812 3.691406 14.277344 3.953125 14.277344 Z M 3.953125 14.277344 "
    />
    <path
      style="
        stroke: none;
        fill-rule: nonzero;
        fill: rgb(100%, 100%, 100%);
        fill-opacity: 1;
      "
      d="M 6.203125 18.277344 L 7.027344 18.195312 C 7.074219 18.472656 7.175781 18.675781 7.328125 18.804688 C 7.480469 18.933594 7.683594 19 7.941406 19 C 8.214844 19 8.421875 18.941406 8.558594 18.824219 C 8.695312 18.710938 8.765625 18.574219 8.765625 18.421875 C 8.765625 18.320312 8.738281 18.238281 8.679688 18.167969 C 8.621094 18.097656 8.519531 18.039062 8.371094 17.988281 C 8.273438 17.953125 8.046875 17.890625 7.695312 17.804688 C 7.242188 17.691406 6.921875 17.550781 6.742188 17.386719 C 6.484375 17.15625 6.355469 16.875 6.355469 16.542969 C 6.355469 16.332031 6.414062 16.132812 6.535156 15.945312 C 6.65625 15.757812 6.832031 15.617188 7.058594 15.519531 C 7.289062 15.421875 7.5625 15.375 7.882812 15.375 C 8.410156 15.375 8.808594 15.488281 9.074219 15.71875 C 9.339844 15.953125 9.476562 16.257812 9.492188 16.644531 L 8.644531 16.683594 C 8.609375 16.464844 8.53125 16.3125 8.414062 16.21875 C 8.292969 16.121094 8.113281 16.074219 7.875 16.074219 C 7.628906 16.074219 7.4375 16.125 7.296875 16.226562 C 7.207031 16.292969 7.164062 16.378906 7.164062 16.488281 C 7.164062 16.585938 7.203125 16.671875 7.289062 16.742188 C 7.394531 16.832031 7.65625 16.925781 8.066406 17.023438 C 8.480469 17.121094 8.785156 17.21875 8.980469 17.324219 C 9.179688 17.429688 9.332031 17.570312 9.445312 17.75 C 9.558594 17.929688 9.613281 18.152344 9.613281 18.417969 C 9.613281 18.660156 9.546875 18.882812 9.410156 19.09375 C 9.277344 19.304688 9.089844 19.460938 8.84375 19.5625 C 8.601562 19.664062 8.296875 19.714844 7.933594 19.714844 C 7.402344 19.714844 6.996094 19.59375 6.710938 19.347656 C 6.425781 19.101562 6.257812 18.746094 6.203125 18.277344 Z M 11.394531 19.640625 L 9.894531 15.445312 L 10.816406 15.445312 L 11.875 18.550781 L 12.902344 15.445312 L 13.800781 15.445312 L 12.300781 19.640625 Z M 16.183594 18.097656 L 16.183594 17.390625 L 18.011719 17.390625 L 18.011719 19.0625 C 17.832031 19.234375 17.574219 19.386719 17.238281 19.515625 C 16.902344 19.644531 16.5625 19.710938 16.214844 19.710938 C 15.777344 19.710938 15.394531 19.621094 15.070312 19.4375 C 14.742188 19.25 14.496094 18.988281 14.332031 18.644531 C 14.167969 18.304688 14.085938 17.929688 14.085938 17.527344 C 14.085938 17.09375 14.179688 16.703125 14.363281 16.363281 C 14.546875 16.023438 14.8125 15.765625 15.167969 15.582031 C 15.433594 15.445312 15.769531 15.375 16.171875 15.375 C 16.691406 15.375 17.097656 15.484375 17.390625 15.703125 C 17.683594 15.921875 17.871094 16.222656 17.957031 16.609375 L 17.113281 16.765625 C 17.054688 16.558594 16.945312 16.394531 16.78125 16.277344 C 16.617188 16.15625 16.414062 16.097656 16.171875 16.097656 C 15.800781 16.097656 15.507812 16.214844 15.289062 16.449219 C 15.070312 16.683594 14.960938 17.03125 14.960938 17.496094 C 14.960938 17.992188 15.070312 18.367188 15.292969 18.613281 C 15.511719 18.863281 15.804688 18.988281 16.160156 18.988281 C 16.339844 18.988281 16.515625 18.953125 16.695312 18.882812 C 16.875 18.8125 17.027344 18.730469 17.15625 18.628906 L 17.15625 18.097656 Z M 16.183594 18.097656 "
    />
  </g>
</svg>
