<?xml version="1.0" encoding="UTF-8"?>
<svg
  xmlns="http://www.w3.org/2000/svg"
  xmlns:xlink="http://www.w3.org/1999/xlink"
  width="24"
  height="24"
  viewBox="0 0 24 24"
  version="1.1"
>
  <g id="surface1">
    <path
      style="
        stroke: none;
        fill-rule: evenodd;
        fill: rgb(80.784314%, 57.647059%, 84.705882%);
        fill-opacity: 1;
      "
      d="M 15.273438 3.09375 L 19.125 6.949219 L 15.960938 6.949219 C 15.582031 6.949219 15.273438 6.640625 15.273438 6.261719 Z M 15.273438 3.09375 "
    />
    <path
      style="
        stroke: none;
        fill-rule: evenodd;
        fill: rgb(88.235294%, 74.509804%, 90.588235%);
        fill-opacity: 1;
      "
      d="M 5.332031 3.09375 L 15.273438 3.09375 L 15.273438 6.242188 C 15.273438 6.632812 15.589844 6.949219 15.980469 6.949219 L 19.125 6.949219 L 19.125 16.5 C 19.125 16.757812 18.914062 16.96875 18.65625 16.96875 L 5.332031 16.96875 C 5.074219 16.96875 4.863281 16.757812 4.863281 16.5 L 4.863281 3.5625 C 4.863281 3.304688 5.074219 3.09375 5.332031 3.09375 Z M 5.332031 3.09375 "
    />
    <path
      style="
        stroke: none;
        fill-rule: nonzero;
        fill: rgb(55.686275%, 14.117647%, 66.666667%);
        fill-opacity: 1;
      "
      d="M 7.875 8.945312 L 16.5 8.945312 L 16.5 9.695312 L 7.875 9.695312 Z M 7.875 8.945312 "
    />
    <path
      style="
        stroke: none;
        fill-rule: nonzero;
        fill: rgb(55.686275%, 14.117647%, 66.666667%);
        fill-opacity: 1;
      "
      d="M 7.875 11.570312 L 16.5 11.570312 L 16.5 12.320312 L 7.875 12.320312 Z M 7.875 11.570312 "
    />
    <path
      style="
        stroke: none;
        fill-rule: evenodd;
        fill: rgb(55.686275%, 14.117647%, 66.666667%);
        fill-opacity: 1;
      "
      d="M 3.953125 14.371094 L 20.046875 14.371094 C 20.308594 14.371094 20.546875 14.476562 20.71875 14.652344 C 20.894531 14.824219 21 15.066406 21 15.328125 L 21 19.949219 C 21 20.210938 20.894531 20.449219 20.71875 20.625 C 20.546875 20.796875 20.308594 20.90625 20.046875 20.90625 L 3.953125 20.90625 C 3.691406 20.90625 3.453125 20.796875 3.28125 20.625 C 3.105469 20.449219 3 20.210938 3 19.949219 L 3 15.328125 C 3 15.066406 3.105469 14.824219 3.28125 14.652344 C 3.453125 14.476562 3.691406 14.371094 3.953125 14.371094 Z M 3.953125 14.371094 "
    />
    <path
      style="
        stroke: none;
        fill-rule: nonzero;
        fill: rgb(100%, 100%, 100%);
        fill-opacity: 1;
      "
      d="M 6.492188 18.371094 L 7.316406 18.289062 C 7.367188 18.566406 7.464844 18.769531 7.617188 18.898438 C 7.769531 19.027344 7.972656 19.09375 8.230469 19.09375 C 8.503906 19.09375 8.710938 19.035156 8.847656 18.917969 C 8.988281 18.804688 9.054688 18.667969 9.054688 18.515625 C 9.054688 18.414062 9.027344 18.332031 8.96875 18.261719 C 8.910156 18.191406 8.808594 18.132812 8.664062 18.082031 C 8.566406 18.046875 8.339844 17.984375 7.984375 17.898438 C 7.53125 17.785156 7.214844 17.644531 7.03125 17.480469 C 6.773438 17.25 6.644531 16.96875 6.644531 16.636719 C 6.644531 16.425781 6.703125 16.226562 6.824219 16.039062 C 6.945312 15.851562 7.121094 15.710938 7.347656 15.613281 C 7.578125 15.515625 7.851562 15.46875 8.175781 15.46875 C 8.703125 15.46875 9.097656 15.582031 9.363281 15.8125 C 9.628906 16.046875 9.769531 16.351562 9.78125 16.738281 L 8.9375 16.777344 C 8.898438 16.558594 8.820312 16.40625 8.703125 16.3125 C 8.582031 16.214844 8.40625 16.167969 8.167969 16.167969 C 7.921875 16.167969 7.726562 16.21875 7.589844 16.320312 C 7.5 16.386719 7.453125 16.472656 7.453125 16.582031 C 7.453125 16.679688 7.496094 16.765625 7.578125 16.835938 C 7.6875 16.925781 7.945312 17.019531 8.359375 17.117188 C 8.769531 17.214844 9.074219 17.3125 9.273438 17.417969 C 9.46875 17.523438 9.625 17.664062 9.734375 17.84375 C 9.847656 18.023438 9.902344 18.246094 9.902344 18.511719 C 9.902344 18.753906 9.835938 18.976562 9.703125 19.1875 C 9.570312 19.398438 9.378906 19.554688 9.136719 19.65625 C 8.890625 19.757812 8.585938 19.808594 8.222656 19.808594 C 7.691406 19.808594 7.285156 19.6875 7 19.441406 C 6.71875 19.195312 6.546875 18.839844 6.492188 18.371094 Z M 11.714844 19.734375 L 11.714844 17.96875 L 10.179688 15.539062 L 11.171875 15.539062 L 12.160156 17.199219 L 13.128906 15.539062 L 14.101562 15.539062 L 12.5625 17.972656 L 12.5625 19.734375 Z M 14.308594 18.371094 L 15.132812 18.289062 C 15.183594 18.566406 15.28125 18.769531 15.433594 18.898438 C 15.585938 19.027344 15.789062 19.09375 16.046875 19.09375 C 16.320312 19.09375 16.527344 19.035156 16.664062 18.917969 C 16.804688 18.804688 16.871094 18.667969 16.871094 18.515625 C 16.871094 18.414062 16.84375 18.332031 16.785156 18.261719 C 16.726562 18.191406 16.625 18.132812 16.480469 18.082031 C 16.382812 18.046875 16.15625 17.984375 15.800781 17.898438 C 15.347656 17.785156 15.03125 17.644531 14.847656 17.480469 C 14.589844 17.25 14.460938 16.96875 14.460938 16.636719 C 14.460938 16.425781 14.519531 16.226562 14.640625 16.039062 C 14.761719 15.851562 14.9375 15.710938 15.164062 15.613281 C 15.394531 15.515625 15.667969 15.46875 15.992188 15.46875 C 16.519531 15.46875 16.914062 15.582031 17.179688 15.8125 C 17.445312 16.046875 17.585938 16.351562 17.597656 16.738281 L 16.753906 16.777344 C 16.714844 16.558594 16.636719 16.40625 16.519531 16.3125 C 16.398438 16.214844 16.222656 16.167969 15.984375 16.167969 C 15.738281 16.167969 15.542969 16.21875 15.40625 16.320312 C 15.316406 16.386719 15.269531 16.472656 15.269531 16.582031 C 15.269531 16.679688 15.3125 16.765625 15.394531 16.835938 C 15.503906 16.925781 15.761719 17.019531 16.175781 17.117188 C 16.585938 17.214844 16.890625 17.3125 17.089844 17.417969 C 17.285156 17.523438 17.441406 17.664062 17.550781 17.84375 C 17.664062 18.023438 17.71875 18.246094 17.71875 18.511719 C 17.71875 18.753906 17.652344 18.976562 17.519531 19.1875 C 17.386719 19.398438 17.195312 19.554688 16.953125 19.65625 C 16.707031 19.757812 16.402344 19.808594 16.039062 19.808594 C 15.507812 19.808594 15.101562 19.6875 14.816406 19.441406 C 14.535156 19.195312 14.363281 18.839844 14.308594 18.371094 Z M 14.308594 18.371094 "
    />
  </g>
</svg>
