<?xml version="1.0" encoding="UTF-8"?>
<svg
  xmlns="http://www.w3.org/2000/svg"
  xmlns:xlink="http://www.w3.org/1999/xlink"
  width="24"
  height="24"
  viewBox="0 0 24 24"
  version="1.1"
>
  <g id="surface1">
    <path
      style="
        stroke: none;
        fill-rule: evenodd;
        fill: rgb(100%, 71.764706%, 30.196078%);
        fill-opacity: 1;
      "
      d="M 15.273438 3 L 19.125 6.855469 L 15.960938 6.855469 C 15.582031 6.855469 15.273438 6.546875 15.273438 6.167969 Z M 15.273438 3 "
    />
    <path
      style="
        stroke: none;
        fill-rule: evenodd;
        fill: rgb(100%, 80%, 50.196078%);
        fill-opacity: 1;
      "
      d="M 5.332031 3 L 15.273438 3 L 15.273438 6.148438 C 15.273438 6.539062 15.589844 6.855469 15.980469 6.855469 L 19.125 6.855469 L 19.125 16.40625 C 19.125 16.664062 18.914062 16.875 18.65625 16.875 L 5.332031 16.875 C 5.074219 16.875 4.863281 16.664062 4.863281 16.40625 L 4.863281 3.46875 C 4.863281 3.210938 5.074219 3 5.332031 3 Z M 5.332031 3 "
    />
    <path
      style="
        stroke: none;
        fill-rule: nonzero;
        fill: rgb(93.72549%, 42.352941%, 0%);
        fill-opacity: 1;
      "
      d="M 7.875 8.851562 L 16.5 8.851562 L 16.5 9.601562 L 7.875 9.601562 Z M 7.875 8.851562 "
    />
    <path
      style="
        stroke: none;
        fill-rule: nonzero;
        fill: rgb(93.72549%, 42.352941%, 0%);
        fill-opacity: 1;
      "
      d="M 7.875 11.476562 L 16.5 11.476562 L 16.5 12.226562 L 7.875 12.226562 Z M 7.875 11.476562 "
    />
    <path
      style="
        stroke: none;
        fill-rule: evenodd;
        fill: rgb(93.72549%, 42.352941%, 0%);
        fill-opacity: 1;
      "
      d="M 3.953125 14.277344 L 20.046875 14.277344 C 20.308594 14.277344 20.546875 14.382812 20.71875 14.558594 C 20.894531 14.730469 21 14.972656 21 15.234375 L 21 19.855469 C 21 20.117188 20.894531 20.355469 20.71875 20.53125 C 20.546875 20.703125 20.308594 20.8125 20.046875 20.8125 L 3.953125 20.8125 C 3.691406 20.8125 3.453125 20.703125 3.28125 20.53125 C 3.105469 20.355469 3 20.117188 3 19.855469 L 3 15.234375 C 3 14.972656 3.105469 14.730469 3.28125 14.558594 C 3.453125 14.382812 3.691406 14.277344 3.953125 14.277344 Z M 3.953125 14.277344 "
    />
    <path
      style="
        stroke: none;
        fill-rule: nonzero;
        fill: rgb(100%, 100%, 100%);
        fill-opacity: 1;
      "
      d="M 6.445312 19.640625 L 7.878906 17.453125 L 6.582031 15.445312 L 7.570312 15.445312 L 8.410156 16.792969 L 9.234375 15.445312 L 10.214844 15.445312 L 8.910156 17.484375 L 10.34375 19.640625 L 9.324219 19.640625 L 8.394531 18.191406 L 7.460938 19.640625 Z M 10.804688 19.640625 L 10.804688 15.480469 L 11.648438 15.480469 L 11.648438 18.933594 L 13.753906 18.933594 L 13.753906 19.640625 Z M 14.144531 18.277344 L 14.96875 18.195312 C 15.019531 18.472656 15.117188 18.675781 15.269531 18.804688 C 15.421875 18.933594 15.625 19 15.882812 19 C 16.15625 19 16.363281 18.941406 16.5 18.828125 C 16.640625 18.710938 16.707031 18.578125 16.707031 18.421875 C 16.707031 18.324219 16.679688 18.238281 16.621094 18.167969 C 16.5625 18.097656 16.460938 18.039062 16.316406 17.988281 C 16.21875 17.953125 15.988281 17.890625 15.636719 17.804688 C 15.183594 17.691406 14.867188 17.554688 14.683594 17.390625 C 14.425781 17.160156 14.296875 16.878906 14.296875 16.546875 C 14.296875 16.332031 14.355469 16.132812 14.476562 15.945312 C 14.597656 15.761719 14.773438 15.617188 15 15.519531 C 15.230469 15.425781 15.503906 15.375 15.828125 15.375 C 16.355469 15.375 16.75 15.492188 17.015625 15.722656 C 17.28125 15.953125 17.421875 16.261719 17.433594 16.644531 L 16.585938 16.683594 C 16.550781 16.46875 16.472656 16.3125 16.355469 16.21875 C 16.234375 16.125 16.054688 16.078125 15.820312 16.078125 C 15.574219 16.078125 15.378906 16.125 15.242188 16.226562 C 15.152344 16.292969 15.105469 16.378906 15.105469 16.488281 C 15.105469 16.585938 15.148438 16.671875 15.230469 16.742188 C 15.335938 16.832031 15.597656 16.925781 16.011719 17.023438 C 16.421875 17.121094 16.726562 17.222656 16.921875 17.324219 C 17.121094 17.429688 17.273438 17.570312 17.386719 17.75 C 17.5 17.933594 17.554688 18.15625 17.554688 18.417969 C 17.554688 18.660156 17.488281 18.886719 17.355469 19.09375 C 17.21875 19.304688 17.03125 19.460938 16.789062 19.5625 C 16.542969 19.664062 16.238281 19.714844 15.875 19.714844 C 15.34375 19.714844 14.9375 19.59375 14.652344 19.347656 C 14.367188 19.101562 14.199219 18.746094 14.144531 18.277344 Z M 14.144531 18.277344 "
    />
  </g>
</svg>
