<?xml version="1.0" encoding="UTF-8"?>
<svg
  xmlns="http://www.w3.org/2000/svg"
  xmlns:xlink="http://www.w3.org/1999/xlink"
  width="24"
  height="24"
  viewBox="0 0 24 24"
  version="1.1"
>
  <g id="surface1">
    <path
      style="
        stroke: none;
        fill-rule: evenodd;
        fill: rgb(100%, 65.490196%, 14.901961%);
        fill-opacity: 1;
      "
      d="M 15.273438 3.09375 L 19.125 6.949219 L 15.960938 6.949219 C 15.582031 6.949219 15.273438 6.640625 15.273438 6.261719 Z M 15.273438 3.09375 "
    />
    <path
      style="
        stroke: none;
        fill-rule: evenodd;
        fill: rgb(100%, 80%, 50.196078%);
        fill-opacity: 1;
      "
      d="M 5.332031 3.09375 L 15.273438 3.09375 L 15.273438 6.242188 C 15.273438 6.632812 15.589844 6.949219 15.980469 6.949219 L 19.125 6.949219 L 19.125 16.5 C 19.125 16.757812 18.914062 16.96875 18.65625 16.96875 L 5.332031 16.96875 C 5.074219 16.96875 4.863281 16.757812 4.863281 16.5 L 4.863281 3.5625 C 4.863281 3.304688 5.074219 3.09375 5.332031 3.09375 Z M 5.332031 3.09375 "
    />
    <path
      style="
        stroke: none;
        fill-rule: nonzero;
        fill: rgb(96.078431%, 48.627451%, 0%);
        fill-opacity: 1;
      "
      d="M 7.875 8.945312 L 16.5 8.945312 L 16.5 9.695312 L 7.875 9.695312 Z M 7.875 8.945312 "
    />
    <path
      style="
        stroke: none;
        fill-rule: nonzero;
        fill: rgb(96.078431%, 48.627451%, 0%);
        fill-opacity: 1;
      "
      d="M 7.875 11.570312 L 16.5 11.570312 L 16.5 12.320312 L 7.875 12.320312 Z M 7.875 11.570312 "
    />
    <path
      style="
        stroke: none;
        fill-rule: evenodd;
        fill: rgb(96.078431%, 48.627451%, 0%);
        fill-opacity: 1;
      "
      d="M 3.953125 14.371094 L 20.046875 14.371094 C 20.308594 14.371094 20.546875 14.476562 20.71875 14.652344 C 20.894531 14.824219 21 15.066406 21 15.328125 L 21 19.949219 C 21 20.210938 20.894531 20.449219 20.71875 20.625 C 20.546875 20.796875 20.308594 20.90625 20.046875 20.90625 L 3.953125 20.90625 C 3.691406 20.90625 3.453125 20.796875 3.28125 20.625 C 3.105469 20.449219 3 20.210938 3 19.949219 L 3 15.328125 C 3 15.066406 3.105469 14.824219 3.28125 14.652344 C 3.453125 14.476562 3.691406 14.371094 3.953125 14.371094 Z M 3.953125 14.371094 "
    />
    <path
      style="
        stroke: none;
        fill-rule: nonzero;
        fill: rgb(100%, 100%, 100%);
        fill-opacity: 1;
      "
      d="M 7.640625 19.734375 L 7.640625 18.972656 L 9.84375 16.25 L 7.886719 16.25 L 7.886719 15.539062 L 10.957031 15.539062 L 10.957031 16.199219 L 8.660156 19.027344 L 11.046875 19.027344 L 11.046875 19.734375 Z M 11.554688 19.734375 L 11.554688 15.539062 L 12.402344 15.539062 L 12.402344 19.734375 Z M 13.210938 19.734375 L 13.210938 15.539062 L 14.570312 15.539062 C 15.082031 15.539062 15.417969 15.5625 15.574219 15.605469 C 15.816406 15.667969 16.019531 15.804688 16.179688 16.015625 C 16.34375 16.226562 16.421875 16.496094 16.421875 16.832031 C 16.421875 17.089844 16.375 17.304688 16.28125 17.480469 C 16.1875 17.65625 16.070312 17.792969 15.925781 17.894531 C 15.78125 17.992188 15.636719 18.058594 15.488281 18.09375 C 15.285156 18.132812 14.992188 18.152344 14.609375 18.152344 L 14.058594 18.152344 L 14.058594 19.734375 Z M 14.058594 16.25 L 14.058594 17.441406 L 14.519531 17.441406 C 14.855469 17.441406 15.078125 17.417969 15.191406 17.375 C 15.300781 17.332031 15.390625 17.261719 15.453125 17.167969 C 15.519531 17.074219 15.550781 16.964844 15.550781 16.84375 C 15.550781 16.691406 15.503906 16.5625 15.414062 16.464844 C 15.328125 16.367188 15.210938 16.304688 15.074219 16.277344 C 14.972656 16.257812 14.769531 16.25 14.464844 16.25 Z M 14.058594 16.25 "
    />
  </g>
</svg>
